<svg width="79" height="29" viewBox="0 0 79 29" fill="none" xmlns="http://www.w3.org/2000/svg">
<path d="M62.3124 16.4989C65.072 16.4989 67.3116 18.7389 67.3116 21.4989C67.3116 24.2589 65.072 26.4989 62.3124 26.4989C59.5528 26.4989 57.3132 24.2589 57.3132 21.4989C57.3132 18.7389 59.5528 16.4989 62.3124 16.4989ZM62.3124 14.4989C58.443 14.4989 55.3135 17.6289 55.3135 21.4989C55.3135 25.3689 58.443 28.4989 62.3124 28.4989C66.1818 28.4989 69.3113 25.3689 69.3113 21.4989C69.3113 17.6289 66.1818 14.4989 62.3124 14.4989Z" fill="#90A4AE"/>
<path d="M15.4497 16.4989C18.2093 16.4989 20.4489 18.7389 20.4489 21.4989C20.4489 24.2589 18.2093 26.4989 15.4497 26.4989C12.6901 26.4989 10.4505 24.2589 10.4505 21.4989C10.4505 18.7389 12.6901 16.4989 15.4497 16.4989M15.4497 14.4989C11.5803 14.4989 8.45081 17.6289 8.45081 21.4989C8.45081 25.3689 11.5803 28.4989 15.4497 28.4989C19.3191 28.4989 22.4486 25.3689 22.4486 21.4989C22.4486 17.6289 19.3191 14.4989 15.4497 14.4989Z" fill="#90A4AE"/>
<path d="M49.0745 5.55888V9.26888" stroke="#90A4AE" stroke-width="1.5" stroke-miterlimit="10"/>
<path d="M76.1211 15.8389H72.2311C71.7711 15.8389 71.3311 15.6689 70.9611 15.3389C70.6411 15.0489 70.2711 14.6089 69.9211 13.9389" stroke="#90A4AE" stroke-width="1.5" stroke-miterlimit="10" stroke-linecap="round"/>
<path d="M9.15068 22.6989C6.70106 22.0289 4.20145 20.9389 1.9818 19.1989C1.3719 18.7189 1.00195 17.9989 1.00195 17.2289C1.00195 15.0889 1.00195 14.7889 1.00195 14.7889L1.9718 13.5989L1.86182 8.26889C1.85182 7.74889 2.25176 7.31889 2.76168 7.28889L10.0305 6.87889C10.0305 6.87889 17.1294 1.80889 24.5183 1.24889C31.9071 0.688889 37.4563 1.24889 37.4563 1.24889C37.4563 1.24889 44.2452 1.56889 55.5534 9.18889" stroke="#90A4AE" stroke-width="2" stroke-miterlimit="10" stroke-linecap="round"/>
<path d="M56.4233 23.8489L21.4988 23.3989" stroke="#90A4AE" stroke-width="2" stroke-miterlimit="10" stroke-linecap="round"/>
<path d="M17.2494 6.38889C17.2494 6.38889 20.8188 9.39889 32.0171 9.39889H56.1233C56.1233 9.39889 64.752 9.84889 69.7312 10.8189C74.1005 11.6689 76.4002 14.0789 76.9101 14.6589C76.9801 14.7389 77.0101 14.8389 77.0001 14.9489L76.5601 21.3389C76.5201 21.8989 76.3102 22.4489 75.9402 22.8689C75.6903 23.1389 75.3903 23.3889 75.0704 23.4289C74.2905 23.5389 68.0115 23.9989 68.0115 23.9989" stroke="#90A4AE" stroke-width="2" stroke-miterlimit="10" stroke-linecap="round"/>
<path d="M33.3669 1.3989V9.2689" stroke="#90A4AE" stroke-width="1.5" stroke-miterlimit="10"/>
</svg>
