<svg width="48" height="34" viewBox="0 0 48 34" fill="none" xmlns="http://www.w3.org/2000/svg">
<path d="M24.0015 2.00059C31.1275 2.00059 35.9915 2.93086 36.8423 3.21094C36.9123 3.27096 37.0324 3.44101 37.0725 3.54104L40.3852 12.1236L40.5153 12.4637L40.7555 12.7337C41.8965 14.0041 43.3077 15.6946 43.5979 16.2048C43.8081 16.5649 43.9082 17.3051 43.9082 17.6952L43.9883 25.6876C43.9883 26.0277 43.8581 26.3477 43.6179 26.5978C43.3777 26.8379 43.0475 26.9779 42.7072 26.9779H5.29588C4.9556 26.9779 4.62532 26.8479 4.38512 26.5978C4.14492 26.3578 4.01481 26.0277 4.01481 25.6876L4.09487 17.6852C4.09487 17.3051 4.20499 16.5749 4.40516 16.2048C4.6954 15.6946 6.10657 14.0141 7.24753 12.7337L7.48772 12.4637L7.61783 12.1236L10.9206 3.57105C10.9706 3.44101 11.0907 3.27096 11.1608 3.21094C12.0215 2.92086 16.8856 2.00059 24.0015 2.00059M24.0015 0C16.5053 0 11.3009 1.0103 10.4002 1.3604C9.49941 1.7105 9.06903 2.82083 9.06903 2.82083L5.75626 11.4034C5.75626 11.4034 3.23416 14.2142 2.66368 15.2245C2.0932 16.2348 2.09319 17.6752 2.09319 17.6752L2.01314 25.6675C1.99312 27.4881 3.47436 28.9785 5.29588 28.9785H42.7072C44.5287 28.9785 46.0099 27.4881 45.9899 25.6675L45.9099 17.6752C45.9099 17.6752 45.9099 16.2348 45.3394 15.2245C44.7689 14.2142 42.2468 11.4034 42.2468 11.4034L38.934 2.82083C38.934 2.82083 38.5037 1.7105 37.6029 1.3604C36.7022 1.0103 31.4978 0 24.0015 0V0Z" fill="#263238"/>
<path d="M3.48441 28.3683H4.05489L9.48943 28.4584V31.8694C9.48943 32.2095 9.21922 32.4796 8.87894 32.4796H4.09491C3.75462 32.4796 3.48441 32.2095 3.48441 31.8694V28.3783M2.0232 24.9073L1.98315 26.9779V31.8594C1.98315 33.0197 2.92393 33.97 4.09491 33.97H8.87894C10.0499 33.97 10.9907 33.0297 10.9907 31.8594V26.9779L4.0749 26.8779L2.0232 24.9073V24.9073Z" fill="#263238"/>
<path d="M44.5187 28.4084V31.8994C44.5187 32.2395 44.2485 32.5096 43.9082 32.5096H39.1242C38.7839 32.5096 38.5137 32.2395 38.5137 31.8994V28.4884L43.9482 28.4084H44.5187M45.9799 24.9373L43.9282 26.9079L37.0125 27.0079V31.8894C37.0125 33.0497 37.9532 34 39.1242 34H43.9082C45.0792 34 46.02 33.0597 46.02 31.8894V27.0079L45.9799 24.9373V24.9373Z" fill="#263238"/>
<path d="M44.2786 10.073C45.3094 10.073 45.7898 10.223 45.8699 10.273C46.2902 10.5831 46.4704 10.9332 46.5004 11.1933H43.0775C43.0775 10.8332 43.0775 10.4731 43.1076 10.183C43.1976 10.143 43.3077 10.113 43.3778 10.103C43.3778 10.103 43.7681 10.063 44.2685 10.063M44.2685 8.56252C43.678 8.56252 43.2277 8.60253 43.2277 8.60253C43.2277 8.60253 41.7564 8.75257 41.6263 9.80288C41.4962 10.8532 41.6263 12.6937 41.6263 12.6937H46.8607C46.8607 12.6937 47.8415 12.6337 47.9816 11.5634C48.0917 10.7532 47.7114 9.78288 46.7606 9.06266C46.2001 8.64254 45.0892 8.55251 44.2685 8.55251V8.56252Z" fill="#263238"/>
<path d="M3.72456 10.073C4.20496 10.073 4.58528 10.103 4.59528 10.103C4.68536 10.113 4.80548 10.153 4.89555 10.183C4.91557 10.4831 4.92558 10.8432 4.92558 11.1933H1.5027C1.53273 10.9332 1.71288 10.5931 2.13323 10.273C2.23332 10.213 2.71372 10.063 3.73458 10.063M3.73458 8.56252C2.90388 8.56252 1.80297 8.65254 1.2425 9.07266C0.2817 9.79288 -0.0986188 10.7632 0.0214816 11.5734C0.171607 12.6337 1.14241 12.7037 1.14241 12.7037H6.3768C6.3768 12.7037 6.4969 10.8632 6.3768 9.81288C6.2567 8.76257 4.77546 8.61253 4.77546 8.61253C4.77546 8.61253 4.32507 8.57252 3.73458 8.57252V8.56252Z" fill="#263238"/>
<path d="M23.0808 20.0349H37.603C38.4136 20.0349 39.2043 19.7949 39.8548 19.3049C40.4153 18.8849 41.0859 18.2449 41.7164 17.2549C41.8665 17.0249 41.6864 16.7149 41.4162 16.7149H32.4287C32.2485 16.7149 32.0684 16.7749 31.9282 16.8949C31.5779 17.1949 31.0175 17.9749 31.0475 19.8749" stroke="#263238" stroke-width="1.5" stroke-miterlimit="10"/>
<path d="M23.0807 20.0349H10.3901C9.57946 20.0349 8.7888 19.7949 8.13825 19.3049C7.57779 18.8849 6.90724 18.2449 6.27671 17.2549C6.12659 17.0249 6.30673 16.7149 6.57695 16.7149H15.5645C15.7446 16.7149 15.9248 16.7749 16.0649 16.8949C16.4152 17.1949 16.9757 17.9749 16.9456 19.8749" stroke="#263238" stroke-width="1.5" stroke-miterlimit="10"/>
<path d="M15.4043 16.7149H32.4185" stroke="#263238" stroke-width="1.5" stroke-miterlimit="10"/>
<path d="M6.9873 11.7535H41.0158" stroke="#263238" stroke-width="1.5" stroke-miterlimit="10"/>
</svg>
