<svg width="45" height="34" viewBox="0 0 45 34" fill="none" xmlns="http://www.w3.org/2000/svg">
<path d="M22.975 2.00941C30.1001 2.00941 34.9668 2.93914 35.8062 3.21905C35.8762 3.27904 35.9961 3.44899 36.0361 3.54896L36.066 3.63893L36.106 3.71891L39.4237 10.4169L39.5436 10.6569L39.7235 10.8568C40.8628 12.1364 42.2818 13.8259 42.5616 14.3258C42.7715 14.6957 42.8714 15.4255 42.8714 15.8153L42.9513 25.6724C42.9513 26.0223 42.8214 26.3522 42.5716 26.5922C42.3217 26.8421 41.992 26.9821 41.6422 26.9821H4.26775C3.91799 26.9821 3.58822 26.8421 3.33839 26.5922C3.08856 26.3423 2.95865 26.0223 2.95865 25.6724L3.03859 15.8054C3.03859 15.4255 3.14852 14.6857 3.34838 14.3258C3.63818 13.8159 5.04722 12.1264 6.18644 10.8568L6.36632 10.6569L6.48624 10.4169L9.80398 3.71891L9.84393 3.63893L9.87394 3.54896C9.87394 3.54896 10.0138 3.29903 10.1038 3.21905C10.9632 2.92914 15.8199 1.99941 22.935 1.99941M22.935 0C15.4501 0 10.2437 1.0097 9.34427 1.3596C8.44488 1.7095 8.01519 2.82917 8.01519 2.82917L4.69746 9.5272C4.69746 9.5272 2.17917 12.3364 1.60956 13.3461C1.03995 14.3558 1.03996 15.7954 1.03996 15.7954L0.960011 25.6525C0.950018 27.4819 2.42901 28.9715 4.25776 28.9715H41.6322C43.461 28.9715 44.95 27.4819 44.93 25.6525L44.8501 15.7954C44.8501 15.7954 44.85 14.3558 44.2804 13.3461C43.7108 12.3364 41.1925 9.5272 41.1925 9.5272L37.8748 2.82917C37.8748 2.82917 37.4451 1.71949 36.5457 1.3596C35.6463 1.0097 30.4399 0 22.955 0H22.935Z" fill="#263238"/>
<path d="M13.4415 30.1911C14.5839 30.1911 15.5101 29.2646 15.5101 28.1217C15.5101 26.9788 14.5839 26.0523 13.4415 26.0523C12.299 26.0523 11.3729 26.9788 11.3729 28.1217C11.3729 29.2646 12.299 30.1911 13.4415 30.1911Z" fill="#263238"/>
<path d="M22.975 24.7427H7.14582C7.14582 24.7427 4.78743 24.7427 2.84875 27.352" stroke="#263238" stroke-width="1.5" stroke-miterlimit="10"/>
<path d="M22.975 24.7427H38.8042C38.8042 24.7427 41.1626 24.7427 43.1012 27.352" stroke="#263238" stroke-width="1.5" stroke-miterlimit="10"/>
<path d="M22.975 12.8462H10.3036C9.49418 12.8462 8.70472 13.0862 8.05516 13.576C7.49554 13.9959 6.826 14.6357 6.19643 15.6254C6.04653 15.8553 6.2264 16.1652 6.49621 16.1652H15.4701C15.65 16.1652 15.8298 16.1053 15.9697 15.9853C16.3195 15.6854 16.8791 14.9056 16.8491 13.0062" stroke="#263238" stroke-width="1.5" stroke-miterlimit="10"/>
<path d="M22.975 12.8462H35.6463C36.4558 12.8462 37.2452 13.0862 37.8948 13.576C38.4544 13.9959 39.124 14.6357 39.7535 15.6254C39.9034 15.8553 39.7235 16.1652 39.4537 16.1652H30.4799C30.3 16.1652 30.1201 16.1053 29.9802 15.9853C29.6304 15.6854 29.0708 14.9056 29.1008 13.0062" stroke="#263238" stroke-width="1.5" stroke-miterlimit="10"/>
<path d="M5.98657 9.95707H39.9634" stroke="#263238" stroke-width="1.5" stroke-miterlimit="10"/>
<path d="M41.4023 7.84769C42.2018 7.84769 42.5815 7.96766 42.6315 7.99765C43.0012 8.30756 43.1611 8.67745 43.1911 8.97736H40.5329C40.5329 8.59747 40.5329 8.21758 40.5629 7.91767C40.6029 7.89768 40.6428 7.88768 40.6628 7.88768C40.6628 7.88768 40.9926 7.84769 41.4123 7.84769M41.4123 6.34813C40.8927 6.34813 40.4929 6.38812 40.4929 6.38812C40.4929 6.38812 39.1938 6.53808 39.0839 7.58777C38.974 8.62746 39.0839 10.4769 39.0839 10.4769H43.7007C43.7007 10.4769 44.5602 10.4169 44.6901 9.34725C44.79 8.53749 44.4502 7.56777 43.6108 6.84799C43.1211 6.42811 42.1418 6.33813 41.4123 6.33813V6.34813Z" fill="#263238"/>
<path d="M4.54754 7.8477C4.94726 7.8477 5.25705 7.87769 5.26705 7.87769C5.30702 7.87769 5.35698 7.89768 5.40695 7.91768C5.42694 8.22758 5.43693 8.60747 5.43693 8.97736H2.76875C2.79873 8.68745 2.94863 8.31756 3.29839 8.01765C3.37834 7.96766 3.75809 7.8477 4.55754 7.8477M4.55754 6.34814C3.82804 6.34814 2.84869 6.43811 2.35903 6.85799C1.5196 7.57778 1.17983 8.54749 1.27976 9.35725C1.40968 10.4169 2.26909 10.4869 2.26909 10.4869H6.88594C6.88594 10.4869 6.99586 8.64746 6.88594 7.59777C6.77601 6.55808 5.47691 6.39812 5.47691 6.39812C5.47691 6.39812 5.08718 6.35813 4.55754 6.35813V6.34814Z" fill="#263238"/>
<path d="M2.48897 28.4516H3.05858L8.49488 28.5416V31.9106C8.49488 32.2405 8.22504 32.5004 7.88528 32.5004H3.09855C2.75878 32.5004 2.48897 32.2305 2.48897 31.9106V28.4516M1.02996 25.0026L0.98999 27.062V31.9106C0.98999 33.0703 1.93934 34 3.09855 34H7.88528C9.05448 34 9.99385 33.0603 9.99385 31.9106V27.062L3.07856 26.9621L1.02996 25.0026V25.0026Z" fill="#263238"/>
<path d="M43.4609 28.4516V31.9106C43.4609 32.2405 43.1911 32.5004 42.8514 32.5004H38.0646C37.7249 32.5004 37.455 32.2305 37.455 31.9106V28.5416L42.8913 28.4616H43.4609M44.9199 25.0026L42.8713 26.9621L35.9561 27.062V31.9106C35.9561 33.0703 36.9054 34 38.0646 34H42.8514C44.0206 34 44.9599 33.0603 44.9599 31.9106V27.062L44.9199 25.0026Z" fill="#263238"/>
</svg>
