<svg width="79" height="29" viewBox="0 0 79 29" fill="none" xmlns="http://www.w3.org/2000/svg">
<path d="M69.8414 22.6989C72.2911 22.0289 74.7907 20.9389 77.0104 19.1989C77.6203 18.7189 77.9902 17.9989 77.9902 17.2289C77.9902 15.0889 77.9902 14.7889 77.9902 14.7889L77.0203 13.5989L77.1303 8.26889C77.1403 7.74889 76.7404 7.31889 76.2305 7.28889L68.9616 6.87889C68.9616 6.87889 61.8627 1.80889 54.4738 1.24889C47.085 0.688889 41.5359 1.24889 41.5359 1.24889C41.5359 1.24889 34.747 1.56889 23.4387 9.18889" stroke="#90A4AE" stroke-width="2" stroke-miterlimit="10" stroke-linecap="round"/>
<path d="M22.5789 23.8489L57.4934 23.3989" stroke="#90A4AE" stroke-width="2" stroke-miterlimit="10" stroke-linecap="round"/>
<path d="M61.7428 6.38889C61.7428 6.38889 58.1733 9.39889 46.9751 9.39889H22.8689C22.8689 9.39889 14.2402 9.84889 9.26096 10.8189C4.89165 11.6689 2.59201 14.0789 2.08209 14.6589C2.0121 14.7389 1.98211 14.8389 1.99211 14.9489L2.43204 21.3389C2.47204 21.8989 2.682 22.4489 3.05194 22.8689C3.3019 23.1389 3.60185 23.3889 3.9218 23.4289C4.70168 23.5389 10.9807 23.9989 10.9807 23.9989" stroke="#90A4AE" stroke-width="2" stroke-miterlimit="10" stroke-linecap="round"/>
<path d="M16.6798 16.4989C19.4394 16.4989 21.679 18.7389 21.679 21.4989C21.679 24.2589 19.4394 26.4989 16.6798 26.4989C13.9202 26.4989 11.6806 24.2589 11.6806 21.4989C11.6806 18.7389 13.9202 16.4989 16.6798 16.4989ZM16.6798 14.4989C12.8104 14.4989 9.68091 17.6289 9.68091 21.4989C9.68091 25.3689 12.8104 28.4989 16.6798 28.4989C20.5492 28.4989 23.6787 25.3689 23.6787 21.4989C23.6787 17.6289 20.5492 14.4989 16.6798 14.4989Z" fill="#90A4AE"/>
<path d="M45.6252 1.3989V9.2689" stroke="#90A4AE" stroke-width="1.5" stroke-miterlimit="10"/>
<path d="M2.87207 15.8389H6.76205C7.22205 15.8389 7.66207 15.6689 8.03207 15.3389C8.35207 15.0489 8.72205 14.6089 9.07205 13.9389" stroke="#90A4AE" stroke-width="1.5" stroke-miterlimit="10" stroke-linecap="round"/>
<path d="M29.9177 5.55888V9.26888" stroke="#90A4AE" stroke-width="1.5" stroke-miterlimit="10"/>
<path d="M63.5425 16.4989C66.3021 16.4989 68.5417 18.7389 68.5417 21.4989C68.5417 24.2589 66.3021 26.4989 63.5425 26.4989C60.7829 26.4989 58.5433 24.2589 58.5433 21.4989C58.5433 18.7389 60.7829 16.4989 63.5425 16.4989ZM63.5425 14.4989C59.6731 14.4989 56.5436 17.6289 56.5436 21.4989C56.5436 25.3689 59.6731 28.4989 63.5425 28.4989C67.4119 28.4989 70.5414 25.3689 70.5414 21.4989C70.5414 17.6289 67.4119 14.4989 63.5425 14.4989Z" fill="#90A4AE"/>
</svg>
