<svg width="79" height="29" viewBox="0 0 79 29" fill="none" xmlns="http://www.w3.org/2000/svg">
<path d="M69.8414 23.1978C72.2911 22.5278 74.7907 21.4378 77.0104 19.6978C77.6203 19.2178 77.9902 18.4978 77.9902 17.7278C77.9902 15.5878 77.9902 15.2878 77.9902 15.2878L77.0203 14.0978L77.1303 8.76779C77.1403 8.24779 76.7404 7.81779 76.2305 7.78779L68.9616 7.37779C68.9616 7.37779 61.8627 2.30779 54.4738 1.74779C47.085 1.18779 41.5359 1.74779 41.5359 1.74779C41.5359 1.74779 34.747 2.06779 23.4387 9.68779" stroke="#263238" stroke-width="2" stroke-miterlimit="10" stroke-linecap="round"/>
<path d="M22.5789 24.3478L57.4934 23.8978" stroke="#263238" stroke-width="2" stroke-miterlimit="10" stroke-linecap="round"/>
<path d="M61.7428 6.88779C61.7428 6.88779 58.1733 9.89779 46.9751 9.89779H22.8689C22.8689 9.89779 14.2402 10.3478 9.26096 11.3178C4.89165 12.1678 2.59201 14.5778 2.08209 15.1578C2.0121 15.2378 1.98211 15.3378 1.99211 15.4478L2.43204 21.8378C2.47204 22.3978 2.682 22.9478 3.05194 23.3678C3.3019 23.6378 3.60185 23.8878 3.9218 23.9278C4.70168 24.0378 10.9807 24.4978 10.9807 24.4978" stroke="#263238" stroke-width="2" stroke-miterlimit="10" stroke-linecap="round"/>
<path d="M16.6798 16.9978C19.4394 16.9978 21.679 19.2378 21.679 21.9978C21.679 24.7578 19.4394 26.9978 16.6798 26.9978C13.9202 26.9978 11.6806 24.7578 11.6806 21.9978C11.6806 19.2378 13.9202 16.9978 16.6798 16.9978ZM16.6798 14.9978C12.8104 14.9978 9.68091 18.1278 9.68091 21.9978C9.68091 25.8678 12.8104 28.9978 16.6798 28.9978C20.5492 28.9978 23.6787 25.8678 23.6787 21.9978C23.6787 18.1278 20.5492 14.9978 16.6798 14.9978Z" fill="#263238"/>
<path d="M45.6252 1.89779V9.76779" stroke="#263238" stroke-width="1.5" stroke-miterlimit="10"/>
<path d="M2.87207 16.3378H6.76205C7.22205 16.3378 7.66207 16.1678 8.03207 15.8378C8.35207 15.5478 8.72205 15.1078 9.07205 14.4378" stroke="#263238" stroke-width="1.5" stroke-miterlimit="10" stroke-linecap="round"/>
<path d="M29.9177 6.05779V9.76779" stroke="#263238" stroke-width="1.5" stroke-miterlimit="10"/>
<path d="M63.5425 16.9978C66.3021 16.9978 68.5417 19.2378 68.5417 21.9978C68.5417 24.7578 66.3021 26.9978 63.5425 26.9978C60.7829 26.9978 58.5433 24.7578 58.5433 21.9978C58.5433 19.2378 60.7829 16.9978 63.5425 16.9978ZM63.5425 14.9978C59.6731 14.9978 56.5436 18.1278 56.5436 21.9978C56.5436 25.8678 59.6731 28.9978 63.5425 28.9978C67.4119 28.9978 70.5414 25.8678 70.5414 21.9978C70.5414 18.1278 67.4119 14.9978 63.5425 14.9978Z" fill="#263238"/>
</svg>
