<svg width="71" height="40" viewBox="0 0 71 40" fill="none" xmlns="http://www.w3.org/2000/svg">
<path d="M44.4092 1.57961C44.6292 1.69958 45.0092 1.96951 45.4792 2.50937C45.6192 2.69933 45.6892 3.43914 45.6292 3.999C45.6292 3.999 45.6092 4.04899 45.5892 4.10897C45.3392 4.12897 45.0092 4.13897 44.6292 4.13897C44.5592 4.13897 44.4792 4.13897 44.4092 4.13897V1.57961ZM44.2092 0C44.2092 0 44.1092 0 44.0592 0C42.9592 0.129968 42.8992 0.989753 42.8992 0.989753V5.5886C42.8992 5.5886 43.7392 5.63859 44.6192 5.63859C45.0592 5.63859 45.5092 5.62859 45.8692 5.5886C46.9392 5.47863 47.0992 4.18895 47.0992 4.18895C47.0992 4.18895 47.3292 2.36941 46.5892 1.52962C45.9092 0.729818 45.0092 0 44.2092 0Z" fill="#263238"/>
<path d="M44.6292 35.851C45.0092 35.851 45.3392 35.851 45.5892 35.881C45.6092 35.921 45.6192 35.961 45.6292 35.991C45.6992 36.5509 45.6292 37.2907 45.4892 37.4806C45.0092 38.0305 44.6292 38.3004 44.4192 38.4204V35.861C44.4892 35.861 44.5692 35.861 44.6392 35.861M44.6392 34.3614C43.7592 34.3614 42.9192 34.4114 42.9192 34.4114V39.0102C42.9192 39.0102 42.9792 39.87 44.0792 40C44.1292 40 44.1792 40 44.2292 40C45.0292 40 45.9292 39.2702 46.6192 38.4804C47.3592 37.6406 47.1292 35.821 47.1292 35.821C47.1292 35.821 46.9692 34.5214 45.8992 34.4214C45.5392 34.3814 45.0892 34.3714 44.6492 34.3714L44.6392 34.3614Z" fill="#263238"/>
<path d="M34.6401 28.9128L28.0308 29.1427C27.0209 29.1727 26.181 28.4129 26.181 27.4431V12.5569C26.181 11.5871 27.0109 10.8173 28.0308 10.8573L34.6401 11.0872C35.6 11.1172 36.3699 11.907 36.3699 12.8468V27.1632C36.3699 28.093 35.59 28.8828 34.6401 28.9228V28.9128Z" stroke="#263238" stroke-width="1.5" stroke-miterlimit="10"/>
<path d="M60.4673 8.22794L62.7473 13.4366C63.0173 14.0465 63.4973 14.5464 64.1573 14.8363C64.7273 15.0962 65.5373 15.3362 66.6473 15.4161" stroke="#263238" stroke-width="1.5" stroke-miterlimit="10" stroke-linecap="round"/>
<path d="M60.4673 31.7621L62.7473 26.5534C63.0173 25.9435 63.4973 25.4436 64.1573 25.1537C64.7273 24.8938 65.5373 24.6538 66.6473 24.5739" stroke="#263238" stroke-width="1.5" stroke-miterlimit="10" stroke-linecap="round"/>
<path d="M67.6864 11.2672C66.1765 7.87803 63.8168 6.10847 62.8769 6.08848C19.8818 4.48888 9.32298 5.23869 5.5434 6.08848C2.99369 6.65834 1.82382 8.3879 1.33388 9.45764C1.1139 9.92752 1.01392 10.4374 1.01392 10.9573V29.0427C1.01392 29.5626 1.1139 30.0725 1.33388 30.5424C1.82382 31.6021 2.99369 33.3417 5.5434 33.9115C9.31298 34.7613 19.8718 35.5111 62.8769 33.9115C63.8168 33.9015 66.1765 32.122 67.6864 28.7328C69.1962 25.3437 69.0062 20.005 69.0062 20.005C69.0062 20.005 69.1962 14.6563 67.6864 11.2772V11.2672Z" stroke="#263238" stroke-width="2" stroke-miterlimit="10"/>
<path d="M49.3884 9.38766C49.4884 9.38766 49.5484 9.39765 49.5784 9.40765C50.2383 10.3074 52.0781 12.9368 52.0781 19.995C52.0781 27.0532 50.2383 29.6826 49.5784 30.5824C49.5484 30.5824 49.4884 30.6024 49.3884 30.6024C49.0784 30.6024 48.7385 30.5024 48.6385 30.4724H48.5985L48.5585 30.4424L41.8393 28.2829H41.7893L41.7493 28.2529C41.5793 28.2129 41.3693 28.123 41.2393 28.053C41.1093 27.2032 41.1193 24.6238 41.1293 22.1145C41.1293 21.4446 41.1293 20.7348 41.1293 19.985C41.1293 19.2352 41.1293 18.5254 41.1293 17.8555C41.1293 15.3562 41.1193 12.7768 41.2393 11.917C41.3693 11.847 41.5793 11.7571 41.7393 11.7171H41.7893L41.8393 11.6871L48.5585 9.52762H48.5985L48.6285 9.50762C48.7385 9.46763 49.0784 9.36766 49.3884 9.36766M49.3884 7.86803C48.7185 7.86803 48.1085 8.09798 48.1085 8.09798L41.3893 10.2574C41.3893 10.2574 40.2794 10.5374 39.9195 11.1272C39.5695 11.7171 39.6395 15.0962 39.6395 19.975C39.6395 24.8538 39.5695 28.2329 39.9195 28.8228C40.2694 29.4126 41.3893 29.6926 41.3893 29.6926L48.1085 31.852C48.1085 31.852 48.7185 32.082 49.3884 32.082C49.8883 32.082 50.4183 31.952 50.7482 31.5021C51.5282 30.4424 53.5779 27.5431 53.5779 19.975C53.5779 12.4069 51.5282 9.50762 50.7482 8.44789C50.4183 7.998 49.8883 7.86803 49.3884 7.86803V7.86803Z" fill="#263238"/>
<path d="M12.7426 9.48763L17.2921 11.6371L17.3521 11.6671L17.4121 11.6871C17.4121 11.6871 17.4721 11.7171 17.5321 11.7571C17.632 12.5469 17.6321 15.1362 17.6221 17.8755V22.1245C17.6221 24.8638 17.622 27.4531 17.5321 28.2429C17.4921 28.2729 17.4421 28.3029 17.4121 28.3129L17.3521 28.3329L17.2921 28.3629L12.7426 30.5124C12.2027 29.3627 11.1428 26.5434 11.1428 20.005C11.1428 13.4666 12.2027 10.6473 12.7426 9.49763M12.4926 7.89803C12.1527 7.89803 11.7927 8.02799 11.5627 8.47788C11.0328 9.53762 9.64294 12.4369 9.64294 20.005C9.64294 27.5731 11.0428 30.4724 11.5627 31.5321C11.7927 31.982 12.1527 32.112 12.4926 32.112C12.9526 32.112 13.3625 31.882 13.3625 31.882L17.932 29.7226C17.932 29.7226 18.6919 29.4426 18.9319 28.8528C19.1719 28.2629 19.1219 24.8838 19.1219 20.005C19.1219 15.1262 19.1719 11.7471 18.9319 11.1572C18.6919 10.5674 17.932 10.2874 17.932 10.2874L13.3625 8.12797C13.3625 8.12797 12.9426 7.89803 12.4926 7.89803Z" fill="#263238"/>
</svg>
