<svg width="79" height="29" viewBox="0 0 79 29" fill="none" xmlns="http://www.w3.org/2000/svg">
<path d="M62.3124 16.9978C65.072 16.9978 67.3116 19.2378 67.3116 21.9978C67.3116 24.7578 65.072 26.9978 62.3124 26.9978C59.5528 26.9978 57.3132 24.7578 57.3132 21.9978C57.3132 19.2378 59.5528 16.9978 62.3124 16.9978ZM62.3124 14.9978C58.443 14.9978 55.3135 18.1278 55.3135 21.9978C55.3135 25.8678 58.443 28.9978 62.3124 28.9978C66.1818 28.9978 69.3113 25.8678 69.3113 21.9978C69.3113 18.1278 66.1818 14.9978 62.3124 14.9978Z" fill="#263238"/>
<path d="M15.4497 16.9978C18.2093 16.9978 20.4489 19.2378 20.4489 21.9978C20.4489 24.7578 18.2093 26.9978 15.4497 26.9978C12.6901 26.9978 10.4505 24.7578 10.4505 21.9978C10.4505 19.2378 12.6901 16.9978 15.4497 16.9978M15.4497 14.9978C11.5803 14.9978 8.45081 18.1278 8.45081 21.9978C8.45081 25.8678 11.5803 28.9978 15.4497 28.9978C19.3191 28.9978 22.4486 25.8678 22.4486 21.9978C22.4486 18.1278 19.3191 14.9978 15.4497 14.9978Z" fill="#263238"/>
<path d="M49.0745 6.05779V9.76779" stroke="#263238" stroke-width="1.5" stroke-miterlimit="10"/>
<path d="M76.1211 16.3378H72.2311C71.7711 16.3378 71.3311 16.1678 70.9611 15.8378C70.6411 15.5478 70.2711 15.1078 69.9211 14.4378" stroke="#263238" stroke-width="1.5" stroke-miterlimit="10" stroke-linecap="round"/>
<path d="M9.15068 23.1978C6.70106 22.5278 4.20145 21.4378 1.9818 19.6978C1.3719 19.2178 1.00195 18.4978 1.00195 17.7278C1.00195 15.5878 1.00195 15.2878 1.00195 15.2878L1.9718 14.0978L1.86182 8.76779C1.85182 8.24779 2.25176 7.81779 2.76168 7.78779L10.0305 7.37779C10.0305 7.37779 17.1294 2.30779 24.5183 1.74779C31.9071 1.18779 37.4563 1.74779 37.4563 1.74779C37.4563 1.74779 44.2452 2.06779 55.5534 9.68779" stroke="#263238" stroke-width="2" stroke-miterlimit="10" stroke-linecap="round"/>
<path d="M56.4233 24.3478L21.4988 23.8978" stroke="#263238" stroke-width="2" stroke-miterlimit="10" stroke-linecap="round"/>
<path d="M17.2494 6.88779C17.2494 6.88779 20.8188 9.89779 32.0171 9.89779H56.1233C56.1233 9.89779 64.752 10.3478 69.7312 11.3178C74.1005 12.1678 76.4002 14.5778 76.9101 15.1578C76.9801 15.2378 77.0101 15.3378 77.0001 15.4478L76.5601 21.8378C76.5201 22.3978 76.3102 22.9478 75.9402 23.3678C75.6903 23.6378 75.3903 23.8878 75.0704 23.9278C74.2905 24.0378 68.0115 24.4978 68.0115 24.4978" stroke="#263238" stroke-width="2" stroke-miterlimit="10" stroke-linecap="round"/>
<path d="M33.3669 1.89779V9.76779" stroke="#263238" stroke-width="1.5" stroke-miterlimit="10"/>
</svg>
