<svg width="128" height="128" viewBox="0 0 128 128" fill="none" xmlns="http://www.w3.org/2000/svg">
<g clip-path="url(#clip0_521_2043)">
<circle cx="64" cy="64" r="62" stroke="#263238" stroke-width="4"/>
<path fill-rule="evenodd" clip-rule="evenodd" d="M55.5669 89.1555C54.7606 90.393 54.1417 91.7256 53.7086 93.1162L24.998 60.0525C23.5207 58.3512 23.6106 55.7971 25.2038 54.2038C26.7971 52.6106 29.3512 52.5207 31.0525 53.998L64.1162 82.7086C62.7256 83.1417 61.393 83.7606 60.1555 84.5669L28.4299 57.0183C28.3142 56.9178 28.1406 56.9239 28.0323 57.0323C27.9239 57.1406 27.9178 57.3142 28.0183 57.4299L55.5669 89.1555Z" fill="#263238"/>
<circle cx="64" cy="93" r="10" stroke="#263238" stroke-width="4"/>
<path fill-rule="evenodd" clip-rule="evenodd" d="M106.096 47.0575C100.737 44.3139 95.0564 42.0772 89.1218 40.4142L90.5922 34.598C97.0295 36.392 103.191 38.8203 109 41.8087L106.096 47.0575ZM66 37.0013C72.6022 37.142 79.0253 37.9678 85.1982 39.4075L86.6685 33.5916C80.0212 32.0323 73.1051 31.1426 66 31V37.0013Z" fill="#607D8B"/>
<path d="M21.904 47.0575C27.2633 44.3139 32.9436 42.0772 38.8782 40.4142L37.4078 34.598C30.9705 36.392 24.8091 38.8203 19 41.8087L21.904 47.0575Z" fill="black"/>
<path d="M62.0001 37.0013C55.3979 37.142 48.9748 37.9678 42.8019 39.4075L41.3315 33.5916C47.9789 32.0323 54.895 31.1426 62.0001 31V37.0013Z" fill="#607D8B"/>
</g>
<defs>
<clipPath id="clip0_521_2043">
<rect width="128" height="128" fill="white"/>
</clipPath>
</defs>
</svg>
