<svg width="128" height="128" viewBox="0 0 128 128" fill="none" xmlns="http://www.w3.org/2000/svg">
<circle cx="48" cy="48" r="43" stroke="#0F396B" stroke-width="6"/>
<rect x="74.615" y="84.6984" width="12" height="60" rx="6" transform="rotate(-45 74.615 84.6984)" fill="#0F396B"/>
<path d="M48.8695 25.5787L68.7145 60.506C69.0933 61.1726 68.6118 62 67.845 62H28.155C27.3882 62 26.9067 61.1726 27.2855 60.506L47.1305 25.5787C47.5139 24.9041 48.4861 24.9041 48.8695 25.5787Z" stroke="#1F74DB" stroke-width="4"/>
<path d="M49.7708 37L49.3889 50.393H46.6111L46.2176 37H49.7708ZM46.125 54.5394C46.125 53.9742 46.2948 53.5061 46.6343 53.1352C46.9815 52.7554 47.4367 52.5655 48 52.5655C48.571 52.5655 49.0262 52.7554 49.3657 53.1352C49.7052 53.5061 49.875 53.9742 49.875 54.5394C49.875 55.0869 49.7052 55.5506 49.3657 55.9304C49.0262 56.3101 48.571 56.5 48 56.5C47.4367 56.5 46.9815 56.3101 46.6343 55.9304C46.2948 55.5506 46.125 55.0869 46.125 54.5394Z" fill="#1F74DB"/>
</svg>
