<svg width="129" height="31" viewBox="0 0 129 31" fill="none" xmlns="http://www.w3.org/2000/svg">
    <path d="m15.55 18.46 8.338-4.807v-3.377l-8.339 4.812-3.8-2.194v3.377l3.8 2.189z" fill="#1F74DB"/>
    <path d="m25.18 21.01-9.264 5.34a.739.739 0 0 1-.744 0l-9.264-5.34a.74.74 0 0 1-.373-.645V9.682c0-.264.14-.511.373-.646l9.264-5.339a.738.738 0 0 1 .744 0l9.265 5.34a.74.74 0 0 1 .372.645v10.683c0 .269-.14.517-.372.646zm5.408-5.984C30.588 6.728 23.852 0 15.544 0S.5 6.728.5 15.026s6.736 15.026 15.044 15.026 15.044-6.728 15.044-15.026z" fill="#1F74DB"/>
    <path d="M37.066 21.01v-1.73l1.53-.294V8.67l-1.53-.295V6.64h6.82c1.106 0 2.057.17 2.848.512.791.34 1.401.83 1.825 1.471.424.64.636 1.405.636 2.298 0 .842-.212 1.596-.63 2.262-.425.666-1.009 1.187-1.759 1.57-.75.381-1.618.578-2.6.583h-2.72v3.65l1.541.295v1.73h-5.96zm4.415-7.895h2.353c.832 0 1.452-.175 1.86-.526.414-.351.616-.863.616-1.534 0-.666-.207-1.198-.615-1.595-.409-.398-1.013-.6-1.82-.6h-2.404v4.256h.01zm4.845 7.896-2.42-6.207 2.6-.64 2.094 4.838 1.226.284v1.73h-3.5v-.005zM55.724 21.222c-1.023 0-1.913-.227-2.678-.676a4.619 4.619 0 0 1-1.773-1.859c-.419-.79-.626-1.694-.626-2.706v-.392c0-1.059.197-1.998.595-2.82.393-.82.951-1.466 1.675-1.936.724-.47 1.572-.702 2.554-.697.967 0 1.784.191 2.44.573.657.382 1.158.93 1.505 1.647.34.718.511 1.586.511 2.608v1.57h-6.286l-.02.057c.04.464.154.883.35 1.25.197.366.471.65.828.856.357.207.786.31 1.292.31a5.25 5.25 0 0 0 1.479-.201c.46-.134.905-.336 1.339-.6l.78 1.777c-.439.356-.997.65-1.664.883-.672.238-1.437.356-2.3.356zm-2.068-6.594h3.568v-.258c0-.433-.057-.805-.171-1.12a1.461 1.461 0 0 0-.553-.728c-.254-.17-.584-.258-.983-.258-.382 0-.703.098-.966.299-.264.201-.47.475-.616.826-.15.351-.248.744-.3 1.183l.021.056zM60.967 25.12v-1.734l1.395-.294v-10.72l-1.54-.294v-1.735h4.192l.14 1.244c.316-.46.698-.816 1.148-1.064.45-.247.982-.377 1.602-.377.864 0 1.603.238 2.213.708.615.47 1.08 1.126 1.406 1.967.326.842.492 1.828.492 2.954v.206c0 1.054-.166 1.973-.492 2.758-.325.785-.796 1.4-1.411 1.838-.615.439-1.36.656-2.228.656-.574 0-1.08-.104-1.515-.31a3.029 3.029 0 0 1-1.122-.914v3.088l1.396.294v1.735h-5.676v-.005zm6.048-6.113c.74 0 1.272-.273 1.608-.82.33-.548.501-1.287.501-2.221v-.207c0-.676-.077-1.27-.227-1.77-.15-.507-.383-.9-.698-1.183-.315-.284-.713-.429-1.2-.429a1.99 1.99 0 0 0-1.044.269c-.3.175-.537.428-.718.759v4.678c.176.305.419.532.718.692.295.155.652.232 1.06.232zM76.848 21.222c-1.06 0-1.902-.284-2.528-.852-.625-.568-.94-1.342-.94-2.323 0-.671.18-1.26.547-1.766.367-.506.905-.904 1.624-1.193.713-.29 1.597-.434 2.641-.434h1.412v-.79c0-.51-.15-.93-.45-1.25-.3-.32-.75-.48-1.35-.48-.31 0-.589.037-.837.114-.248.078-.47.18-.667.32l-.227 1.41H74l-.042-2.773a8.96 8.96 0 0 1 1.82-.77c.652-.196 1.38-.294 2.182-.294 1.396 0 2.502.326 3.309.971.811.65 1.215 1.575 1.215 2.778v4.405c0 .144 0 .289.005.428.005.14.015.28.036.408l1.116.16v1.73h-3.577a14.821 14.821 0 0 1-.217-.594 4.172 4.172 0 0 1-.16-.63c-.342.434-.745.78-1.21 1.043-.46.248-1.003.382-1.629.382zm.77-2.132c.404 0 .787-.088 1.148-.274.362-.18.641-.418.843-.717V16.41h-1.422c-.63 0-1.111.145-1.437.434-.326.289-.491.64-.491 1.048 0 .382.119.676.362.883.233.212.569.315.998.315zM84.908 21.01v-1.73l1.396-.294v-6.624l-1.54-.295v-1.735h4.425v8.654l1.385.295v1.73h-5.666zm1.298-12.94V5.614h2.983V8.07h-2.983zM91.727 21.01v-1.729l1.386-.294v-6.625l-1.53-.295v-1.735H95.8l.109 1.322.02.238c.264-.579.59-1.017.977-1.312.388-.294.853-.444 1.396-.444.17 0 .357.016.564.047.201.03.387.067.543.113l-.305 2.654-1.432-.077c-.409-.02-.74.052-.993.207a2.3 2.3 0 0 0-.677.681v5.23l1.385.295v1.73h-5.66v-.005zM100.216 21.01v-1.73l1.396-.294v-6.624l-1.541-.295v-1.735h4.426v8.654l1.385.295v1.73h-5.666zm1.298-12.94V5.614h2.983V8.07h-2.983zM106.957 21.01v-1.73l1.396-.294v-6.635h-1.592v-2.024h1.592V9.145c0-1.198.346-2.123 1.034-2.768.688-.65 1.654-.97 2.89-.97.31 0 .636.025.977.072.341.051.636.108.879.17l-.248 2.143a3.065 3.065 0 0 0-.543-.103 6.255 6.255 0 0 0-.62-.037c-.502 0-.874.13-1.117.388s-.367.624-.367 1.105v1.182h2.419v2.024h-2.419v6.635l1.887.295v1.73h-6.168zM117.825 25.327c-.249 0-.517-.02-.797-.062a6.219 6.219 0 0 1-.796-.17l.326-2.112c.124.026.264.046.414.057.15.015.284.02.393.02.413 0 .775-.108 1.075-.325.305-.217.522-.532.662-.94l.237-.66-3.577-8.877-1.313-.186v-1.735h5.671v1.735l-1.303.197 1.68 4.709.207.583h.057l1.985-5.308-1.277-.175v-1.735h5.289v1.735l-1.204.165-4.079 10.363c-.197.496-.45.945-.755 1.358a3.355 3.355 0 0 1-1.169.992c-.465.247-1.044.371-1.726.371zM126.768 19.663h-.486v1.353h-.196v-1.353h-.486v-.165h1.173v.165h-.005zM127.249 19.498l.496 1.234.496-1.234h.259v1.513h-.202v-.589l.021-.635-.496 1.224h-.156l-.496-1.224.021.635v.589h-.202v-1.513h.259z" fill="#000"/>
</svg>
