<svg width="165" height="54" viewBox="0 0 165 54" fill="none" xmlns="http://www.w3.org/2000/svg">
    <g clip-path="url(#t08jspblda)">
        <path d="m23.906 28.017 12.817-7.278v-5.087L23.906 22.93l-5.891-3.287v5.087l5.89 3.287z" fill="#1F74DB"/>
        <path d="m38.714 31.93-14.25 8.061a.97.97 0 0 1-1.115 0l-14.25-8.06c-.319-.236-.558-.549-.558-.94v-16.2c0-.391.239-.782.557-.939l14.251-8.06a.97.97 0 0 1 1.114 0l14.251 8.06c.319.235.557.548.557.94v16.2c.08.39-.159.703-.557.938zm8.36-9.078c0-12.6-10.35-22.774-23.168-22.774C11.09.078.74 10.252.74 22.852c0 12.6 10.35 22.774 23.167 22.774 12.818 0 23.167-10.174 23.167-22.774z" fill="#1F74DB"/>
        <path d="M57.024 51.417V43.59h2.23c.716 0 1.273.156 1.83.47.558.312.956.704 1.195 1.252.318.547.398 1.173.477 1.878v.47c0 .704-.159 1.408-.398 1.956-.318.548-.716.939-1.273 1.252a3.749 3.749 0 0 1-1.831.47h-2.23v.078zm1.035-6.965v6.104h1.115c.796 0 1.433-.235 1.91-.704.478-.47.637-1.174.637-2.113v-.47c0-.86-.238-1.565-.636-2.035-.398-.47-1.035-.704-1.831-.782h-1.195zM67.055 46.486h-.477c-.637 0-1.115.314-1.354.861v4.07H64.19v-5.791h.956v.704c.318-.548.796-.783 1.433-.783.159 0 .318 0 .477.079v.86zM67.932 44.06c0-.156.08-.313.159-.39.08-.08.239-.157.478-.157.238 0 .318.078.477.156.16.079.16.235.16.392 0 .156-.08.313-.16.39-.08.08-.239.157-.478.157-.238 0-.318-.078-.477-.156a.592.592 0 0 1-.16-.392zm1.114 7.357h-1.035v-5.791h1.035v5.791zM72.628 50.087l1.433-4.461h1.035l-2.15 5.791h-.796l-2.149-5.791h1.035l1.592 4.46zM78.52 51.495c-.796 0-1.433-.234-1.91-.782-.479-.548-.717-1.174-.717-2.035v-.157c0-.547.08-1.095.318-1.565.239-.47.557-.782.955-1.096.398-.234.797-.39 1.274-.39.796 0 1.353.234 1.752.782.398.548.637 1.174.637 2.113v.391h-3.981c0 .548.16 1.018.478 1.409.318.313.716.548 1.273.548.319 0 .637-.078.876-.235.239-.157.478-.313.637-.548l.637.47c-.478.704-1.194 1.095-2.23 1.095zm-.08-5.165c-.398 0-.716.157-1.035.47-.239.313-.478.704-.478 1.252h2.946v-.078c0-.47-.16-.861-.398-1.174-.318-.313-.637-.47-1.035-.47zM82.977 45.626v.704c.478-.548 1.035-.86 1.752-.86 1.274 0 1.91.704 1.91 2.034v3.835h-1.034v-3.835c0-.391-.08-.704-.319-.94-.16-.234-.478-.312-.876-.312-.318 0-.636.078-.875.235-.24.156-.478.39-.558.704v4.148h-1.035v-5.791h1.035v.078zM95.874 48.6c0 .86-.238 1.565-.636 2.113s-.956.782-1.672.782c-.717 0-1.354-.234-1.752-.782l-.08.704h-.955V43.2h1.035v3.052a2.13 2.13 0 0 1 1.672-.783c.717 0 1.274.235 1.672.783.398.548.637 1.252.637 2.191v.157h.08zm-.955-.157c0-.704-.16-1.174-.398-1.565-.239-.391-.637-.548-1.115-.548-.636 0-1.114.313-1.433.94v2.504c.319.626.797.939 1.433.939.478 0 .876-.157 1.115-.548s.398-.94.398-1.722zM99.06 49.93l1.353-4.304h1.114l-2.388 6.652c-.398.94-.955 1.409-1.751 1.409h-.16l-.398-.079v-.782h.239c.318 0 .637-.078.796-.235.16-.157.319-.391.478-.783l.239-.626-2.07-5.713h1.114l1.433 4.461zM104.712 51.417v-.94l.876-.156v-5.556l-.876-.157v-.94h3.742c.637 0 1.114.08 1.592.314.398.157.796.47 1.035.783.239.313.318.782.318 1.252s-.079.86-.318 1.252c-.239.391-.557.626-.955.86-.399.236-.876.314-1.434.314h-1.512v1.956l.876.157v.939h-3.344v-.078zm2.468-4.305h1.274c.477 0 .796-.078 1.035-.313.238-.156.318-.47.318-.86 0-.392-.08-.627-.318-.861-.239-.235-.558-.313-1.035-.313h-1.274v2.347zm2.627 4.305-1.353-3.365 1.433-.313 1.114 2.582.637.157v.939h-1.831zM114.982 51.495c-.558 0-1.035-.156-1.513-.39a2.395 2.395 0 0 1-.955-1.018c-.239-.392-.319-.94-.319-1.487v-.235c0-.548.08-1.096.319-1.565.239-.47.557-.783.955-1.018a2.785 2.785 0 0 1 1.433-.39c.557 0 .955.077 1.354.312.398.235.636.47.796.861.159.391.318.86.318 1.409v.86h-3.423c0 .235.079.47.159.705s.239.391.478.47c.159.078.398.156.716.156.319 0 .557 0 .796-.078.239-.079.478-.157.717-.313l.398.939c-.239.156-.557.391-.955.47-.319.313-.797.313-1.274.313zm-1.115-3.521h1.99v-.157c0-.235 0-.47-.079-.626-.08-.156-.159-.313-.319-.391-.159-.078-.318-.157-.557-.157-.239 0-.398.078-.557.157-.159.078-.239.235-.319.47-.079.234-.159.39-.159.704zM117.927 53.608v-.939l.796-.156V46.72l-.875-.156v-.94h2.308l.08.705c.159-.235.398-.47.637-.548.239-.156.557-.235.876-.235.477 0 .875.157 1.194.392.318.234.557.626.796 1.095.159.47.239 1.018.239 1.566v.078c0 .548-.08 1.095-.239 1.487a2.55 2.55 0 0 1-.796 1.017 1.98 1.98 0 0 1-1.194.391c-.319 0-.558-.078-.796-.156-.239-.078-.478-.313-.637-.47v1.644l.796.156v.94h-3.185v-.079zm3.344-3.287c.398 0 .716-.156.876-.47.159-.312.239-.704.239-1.173V48.6c0-.392-.08-.705-.16-.94a1.695 1.695 0 0 0-.398-.626c-.159-.156-.398-.234-.637-.234-.238 0-.398.078-.557.156a.955.955 0 0 0-.398.391v2.505c.08.156.239.313.398.391.159 0 .398.078.637.078zM126.685 51.495c-.557 0-1.035-.156-1.433-.47-.318-.313-.478-.704-.478-1.252 0-.391.08-.704.319-.939.239-.313.478-.47.876-.626.398-.156.875-.235 1.433-.235h.796v-.391c0-.313-.08-.47-.239-.704-.159-.157-.398-.235-.717-.235-.159 0-.318 0-.477.078-.16.078-.239.078-.398.157l-.16.782h-1.114v-1.487c.318-.156.637-.313 1.035-.391.398-.078.796-.156 1.194-.156.796 0 1.353.156 1.831.547.478.313.637.861.637 1.487V50.478l.637.078v.94h-1.99c-.08-.08-.08-.236-.16-.314-.079-.078-.079-.235-.079-.313-.16.235-.398.391-.637.548-.239 0-.557.078-.876.078zm.398-1.096c.239 0 .398-.078.637-.156s.318-.235.478-.391v-.94h-.796c-.319 0-.637.079-.797.235a.705.705 0 0 0-.238.548c0 .235.079.391.159.47a.727.727 0 0 0 .557.234zM131.063 51.417v-.94l.796-.156v-3.6l-.876-.156v-.94h2.468v4.696l.796.157v.939h-3.184zm.717-7.044v-1.33h1.671v1.33h-1.671zM134.805 51.417v-.94l.796-.156v-3.6l-.875-.156v-.94h2.308l.08.705v.157c.159-.314.318-.548.557-.705.239-.156.478-.235.796-.235h.319c.079 0 .239 0 .318.079l-.159 1.408-.796-.078c-.239 0-.398 0-.557.078-.16.079-.239.235-.398.392v2.817l.796.157v.939h-3.185v.078zM139.502 51.417v-.94l.797-.156v-3.6l-.876-.156v-.94h2.468v4.696l.796.157v.939h-3.185zm.717-7.044v-1.33h1.672v1.33h-1.672zM143.244 51.417v-.94l.796-.156v-3.6h-.876v-1.095h.876V45c0-.627.159-1.174.557-1.487a2.422 2.422 0 0 1 1.592-.548c.16 0 .319 0 .558.078.159 0 .318.078.477.078l-.159 1.174c-.08 0-.159-.078-.318-.078h-.319c-.239 0-.478.078-.637.235-.159.156-.239.313-.239.626v.626h1.354V46.8h-1.354v3.6l1.035.156v.94h-3.343v-.079zM149.214 53.765h-.477c-.159 0-.319-.078-.478-.078l.159-1.174h.478c.239 0 .398-.078.557-.157.159-.156.319-.313.398-.47l.16-.39-1.991-4.775-.716-.078v-.939h3.105v.94l-.717.078.955 2.582.08.313 1.115-2.895-.717-.079v-.939h2.946v.94l-.637.078-2.229 5.634c-.08.235-.239.548-.398.705-.16.234-.398.39-.637.547a3.023 3.023 0 0 1-.956.157z" fill="#8C8C8C"/>
        <path d="M62.358 32.243c-1.671 0-2.945-.47-3.9-1.33-.956-.861-1.434-2.035-1.434-3.522 0-1.017.319-1.878.876-2.661.557-.783 1.433-1.409 2.468-1.8 1.115-.47 2.468-.626 4.06-.626h2.15V21.13c0-.783-.239-1.409-.717-1.878-.477-.47-1.114-.705-2.07-.705-.477 0-.875.079-1.273.157-.398.078-.717.313-1.035.47l-.319 2.113H57.98l-.08-4.226c.876-.47 1.831-.861 2.787-1.175.955-.313 2.15-.469 3.343-.469 2.15 0 3.822.47 5.095 1.487 1.274 1.017 1.911 2.348 1.911 4.226V28.408c0 .235 0 .392.08.626l1.751.235v2.583h-5.493c-.08-.313-.239-.548-.319-.861l-.238-.94c-.558.627-1.115 1.175-1.831 1.566a5.9 5.9 0 0 1-2.628.626zm1.195-3.209c.636 0 1.194-.156 1.751-.39.557-.314.955-.627 1.274-1.097v-2.582h-2.23c-.955 0-1.75.235-2.228.626-.478.47-.717.939-.717 1.565 0 .548.16 1.018.557 1.33.398.392.956.548 1.593.548zM81.466 32.243c-1.194 0-2.389-.078-3.424-.313-1.035-.235-2.07-.548-3.025-1.017l-.08-4.54h3.105l.558 2.348c.318.157.716.313 1.114.392.398.078.876.156 1.433.156.956 0 1.672-.156 2.07-.47.398-.313.637-.704.637-1.173 0-.47-.239-.861-.637-1.174-.398-.313-1.274-.626-2.547-.94-1.911-.39-3.424-1.017-4.3-1.878-.955-.86-1.353-1.878-1.353-3.208 0-.861.239-1.722.717-2.426.477-.705 1.194-1.331 2.15-1.8.954-.47 2.149-.705 3.661-.705 1.274 0 2.389.078 3.424.313 1.035.235 1.91.548 2.627.94l.08 4.46H84.57l-.477-2.113c-.239-.235-.558-.313-.956-.47-.398-.078-.796-.156-1.273-.156-.796 0-1.354.157-1.831.47-.398.313-.637.704-.637 1.174 0 .313.08.547.239.782.159.235.477.47.875.704.398.235 1.035.392 1.911.627 2.07.47 3.503 1.095 4.458 1.8.956.782 1.433 1.8 1.433 3.208 0 1.487-.557 2.74-1.672 3.678-1.353.861-2.945 1.331-5.174 1.331zM94.76 31.93v-1.878l2.468-.391V12.443h-5.015l-.478 3.053h-2.23v-5.322h18.471v5.243h-2.229l-.478-3.052h-5.016v17.217l2.468.392v1.878h-7.96v.078zM115.46 32.243c-1.513 0-2.866-.313-3.981-1.017a7.51 7.51 0 0 1-2.627-2.818c-.637-1.252-.956-2.66-.956-4.226v-.704c0-1.565.319-2.896.956-4.148.637-1.174 1.512-2.191 2.547-2.896 1.035-.704 2.23-1.017 3.503-1.017 1.513 0 2.707.313 3.742.86 1.035.549 1.752 1.41 2.229 2.505a9.413 9.413 0 0 1 .796 3.835v1.878h-10.668l-.079.078a7.32 7.32 0 0 0 .557 2.74c.318.782.876 1.408 1.513 1.878.637.47 1.433.704 2.388.704a9.376 9.376 0 0 0 2.707-.391 6.979 6.979 0 0 0 1.99-1.174l1.194 1.878c-.557.548-1.353 1.018-2.309 1.409-.955.391-2.149.626-3.502.626zm-4.299-10.017h7.563v-.392c0-.782-.16-1.487-.398-2.113a3.895 3.895 0 0 0-1.274-1.487c-.557-.39-1.274-.547-2.07-.547-.637 0-1.274.156-1.831.547a4.342 4.342 0 0 0-1.354 1.566c-.318.782-.557 1.486-.636 2.426zM131.779 32.243c-1.512 0-2.786-.313-3.901-1.017-1.114-.704-1.99-1.644-2.547-2.818-.637-1.252-.876-2.66-.876-4.226v-.704a9.93 9.93 0 0 1 .876-4.148c.557-1.252 1.433-2.191 2.547-2.895 1.115-.705 2.389-1.096 3.981-1.096 1.353 0 2.468.235 3.503.626 1.035.391 1.831 1.017 2.547 1.8l.08 3.913h-2.309l-.477-2.817c-.319-.313-.796-.627-1.274-.861-.557-.235-1.115-.313-1.831-.313-.876 0-1.672.235-2.389.782-.636.548-1.194 1.174-1.592 2.113-.398.861-.557 1.8-.557 2.896v.626c0 1.174.159 2.191.557 3.052.319.861.876 1.566 1.513 2.035.637.47 1.433.704 2.309.704a3.991 3.991 0 0 0 2.547-.86c.637-.548 1.115-1.33 1.194-2.27h2.707v.078c-.079.94-.318 1.8-.876 2.583a5.185 5.185 0 0 1-2.149 1.956c-1.115.626-2.229.861-3.583.861zM139.423 31.93v-1.878l2.468-.391V10.956l-2.468-.391V8.608h5.493v9.313c.557-.782 1.274-1.408 2.07-1.8a6.243 6.243 0 0 1 2.707-.626c1.751 0 3.105.548 4.14 1.566.955 1.017 1.433 2.66 1.433 4.773v7.827l2.468.39v1.88h-7.962v-1.88l2.468-.39v-7.905c0-1.33-.318-2.348-.875-2.974-.558-.626-1.433-.939-2.628-.939-.796 0-1.592.157-2.229.548s-1.194.94-1.672 1.565v9.626l2.468.392v1.878h-7.881v.078zM160.122 29.895c0-.39.08-.704.239-1.017a1.55 1.55 0 0 1 .716-.704c.319-.157.637-.235.956-.235.318 0 .716.078.955.235.319.156.557.391.717.704.159.313.238.626.238 1.017 0 .392-.079.705-.238 1.018-.16.313-.398.548-.717.782-.318.157-.637.313-1.035.313-.398 0-.716-.078-1.035-.313-.318-.156-.557-.47-.716-.782 0-.313-.08-.626-.08-1.018zm.319 0c0 .314.079.627.238.861.16.235.319.47.637.626.239.157.558.235.796.235.319 0 .558-.078.796-.235.239-.156.478-.39.558-.626.159-.234.239-.547.239-.86 0-.314-.08-.627-.239-.861-.159-.235-.319-.47-.558-.627a1.553 1.553 0 0 0-.796-.234c-.318 0-.557.078-.796.235a2.412 2.412 0 0 0-.637.626c-.159.234-.238.547-.238.86zm1.194.235v.94h-.398V28.8h.796c.318 0 .477.078.637.156a.705.705 0 0 1 .238.548c0 .235-.079.391-.318.47.239.078.318.313.318.548v.156c0 .157 0 .235.08.313v.078h-.398v-.626c0-.156-.159-.235-.398-.235h-.557v-.078zm0-.391h.398c.159 0 .239 0 .318-.078.08-.079.159-.157.159-.235 0-.157 0-.235-.079-.313-.08-.078-.159-.078-.398-.078h-.398v.704z" fill="#000"/>
        <path d="M155.982 49.382h-.716v2.035h-.319v-2.035h-.796v-.234h1.831v.234zM156.699 49.148l.796 1.878.797-1.879h.398v2.27h-.319V49.617l-.796 1.878h-.239l-.796-1.878V51.417h-.318v-2.27h.477z" fill="#8C8C8C"/>
    </g>
    <defs>
        <clipPath id="t08jspblda">
            <path fill="#fff" transform="translate(.5)" d="M0 0h164v54H0z"/>
        </clipPath>
    </defs>
</svg>
