<svg width="165" height="54" viewBox="0 0 165 54" fill="none" xmlns="http://www.w3.org/2000/svg">
    <g clip-path="url(#oi4j26gc1a)">
        <path d="m23.906 28.018 12.817-7.279v-5.087l-12.817 7.279-5.891-3.287v5.087l5.89 3.287z" fill="#1F74DB"/>
        <path d="m38.714 31.93-14.25 8.061a.97.97 0 0 1-1.115 0l-14.25-8.06c-.319-.235-.558-.548-.558-.94v-16.2c0-.39.239-.782.557-.939l14.251-8.06a.97.97 0 0 1 1.114 0l14.251 8.06c.319.235.557.548.557.94v16.2c.08.39-.159.704-.557.938zm8.36-9.078c0-12.6-10.35-22.774-23.168-22.774C11.09.078.74 10.252.74 22.852c0 12.6 10.35 22.774 23.167 22.774 12.818 0 23.167-10.174 23.167-22.774z" fill="#1F74DB"/>
        <path d="M57.024 51.418v-7.826h2.23c.716 0 1.273.156 1.83.47.558.312.956.704 1.195 1.251.318.548.398 1.174.477 1.878v.47c0 .704-.159 1.409-.398 1.957-.318.547-.716.939-1.273 1.252a3.749 3.749 0 0 1-1.831.47h-2.23v.078zm1.035-6.966v6.105h1.115c.796 0 1.433-.235 1.91-.705.478-.47.637-1.173.637-2.113v-.47c0-.86-.238-1.564-.636-2.034-.398-.47-1.035-.704-1.831-.783h-1.195zM67.055 46.487h-.477c-.637 0-1.115.313-1.354.861v4.07H64.19v-5.792h.956v.705c.318-.548.796-.783 1.433-.783.159 0 .318 0 .477.078v.861zM67.932 44.061c0-.157.08-.313.159-.391.08-.079.239-.157.478-.157.238 0 .318.078.477.157.16.078.16.234.16.391s-.08.313-.16.391c-.08.079-.239.157-.478.157-.238 0-.318-.078-.477-.157a.593.593 0 0 1-.16-.391zm1.114 7.356h-1.035v-5.79h1.035v5.79zM72.628 50.087l1.433-4.46h1.035l-2.15 5.79h-.796l-2.149-5.79h1.035l1.592 4.46zM78.52 51.496c-.796 0-1.433-.235-1.91-.783-.479-.548-.717-1.174-.717-2.035v-.156c0-.548.08-1.096.318-1.565.239-.47.557-.783.955-1.096.398-.235.797-.391 1.274-.391.796 0 1.353.235 1.752.782.398.548.637 1.174.637 2.113v.392h-3.981c0 .547.16 1.017.478 1.408.318.313.716.548 1.273.548.319 0 .637-.078.876-.235.239-.156.478-.313.637-.547l.637.47c-.478.703-1.194 1.095-2.23 1.095zm-.08-5.165c-.398 0-.716.156-1.035.47-.239.312-.478.703-.478 1.251h2.946v-.078c0-.47-.16-.86-.398-1.174-.318-.313-.637-.47-1.035-.47zM82.977 45.626v.705c.478-.548 1.035-.861 1.752-.861 1.274 0 1.91.704 1.91 2.035v3.834h-1.034v-3.834c0-.392-.08-.705-.319-.94-.16-.234-.478-.313-.876-.313-.318 0-.636.079-.875.235-.24.157-.478.391-.558.704v4.148h-1.035v-5.791h1.035v.078zM95.874 48.6c0 .861-.238 1.565-.636 2.113s-.956.783-1.672.783c-.717 0-1.354-.235-1.752-.783l-.08.705h-.955V43.2h1.035v3.052a2.13 2.13 0 0 1 1.672-.782c.717 0 1.274.235 1.672.782.398.548.637 1.252.637 2.192v.156h.08zm-.955-.156c0-.705-.16-1.174-.398-1.566-.239-.39-.637-.547-1.115-.547-.636 0-1.114.313-1.433.939v2.504c.319.626.797.94 1.433.94.478 0 .876-.157 1.115-.549.239-.39.398-.939.398-1.721zM99.06 49.93l1.353-4.304h1.114l-2.388 6.652c-.398.94-.955 1.41-1.751 1.41h-.16l-.398-.08v-.782h.239c.318 0 .637-.078.796-.234.16-.157.319-.392.478-.783l.239-.626-2.07-5.713h1.114l1.433 4.46zM104.712 51.417v-.939l.876-.156v-5.557l-.876-.156v-.94h3.742c.637 0 1.114.079 1.592.314.398.156.796.47 1.035.782.239.313.318.783.318 1.252 0 .47-.079.861-.318 1.253-.239.391-.557.626-.955.86-.399.235-.876.314-1.434.314h-1.512V50.4l.876.157v.939h-3.344v-.079zm2.468-4.304h1.274c.477 0 .796-.078 1.035-.313.238-.156.318-.47.318-.86 0-.392-.08-.627-.318-.862-.239-.234-.558-.313-1.035-.313h-1.274v2.348zm2.627 4.304-1.353-3.365 1.433-.313 1.114 2.583.637.156v.94h-1.831zM114.982 51.496c-.558 0-1.035-.157-1.513-.392a2.396 2.396 0 0 1-.955-1.017c-.239-.391-.319-.94-.319-1.487v-.235c0-.548.08-1.095.319-1.565s.557-.783.955-1.017a2.785 2.785 0 0 1 1.433-.392c.557 0 .955.079 1.354.313.398.235.636.47.796.861.159.392.318.861.318 1.409v.86h-3.423c0 .236.079.47.159.705s.239.392.478.47c.159.078.398.156.716.156.319 0 .557 0 .796-.078s.478-.157.717-.313l.398.94c-.239.156-.557.39-.955.469-.319.313-.797.313-1.274.313zm-1.115-3.522h1.99v-.157c0-.234 0-.47-.079-.626-.08-.156-.159-.313-.319-.391-.159-.078-.318-.156-.557-.156-.239 0-.398.078-.557.156-.159.078-.239.235-.319.47-.079.234-.159.39-.159.704zM117.927 53.609v-.94l.796-.156v-5.791l-.875-.157v-.939h2.308l.08.705c.159-.235.398-.47.637-.548.239-.157.557-.235.876-.235.477 0 .875.156 1.194.391.318.235.557.626.796 1.096.159.47.239 1.017.239 1.565v.078c0 .548-.08 1.096-.239 1.487a2.55 2.55 0 0 1-.796 1.018 1.98 1.98 0 0 1-1.194.39c-.319 0-.558-.077-.796-.156-.239-.078-.478-.313-.637-.47v1.644l.796.157v.939h-3.185v-.078zm3.344-3.287c.398 0 .716-.157.876-.47.159-.313.239-.704.239-1.174V48.6c0-.391-.08-.704-.16-.94a1.695 1.695 0 0 0-.398-.625c-.159-.157-.398-.235-.637-.235-.238 0-.398.078-.557.157a.955.955 0 0 0-.398.39v2.505c.08.157.239.313.398.392.159 0 .398.078.637.078zM126.685 51.496c-.557 0-1.035-.157-1.433-.47-.318-.313-.478-.704-.478-1.252 0-.391.08-.704.319-.94.239-.312.478-.469.876-.625.398-.157.875-.235 1.433-.235h.796v-.391c0-.313-.08-.47-.239-.705-.159-.156-.398-.234-.717-.234-.159 0-.318 0-.477.078-.16.078-.239.078-.398.156l-.16.783h-1.114v-1.487c.318-.157.637-.313 1.035-.391.398-.078.796-.157 1.194-.157.796 0 1.353.157 1.831.548.478.313.637.86.637 1.487V50.478l.637.079v.939h-1.99c-.08-.079-.08-.235-.16-.313-.079-.078-.079-.235-.079-.313-.16.235-.398.391-.637.547-.239 0-.557.079-.876.079zm.398-1.096c.239 0 .398-.078.637-.156.239-.079.318-.235.478-.392v-.939h-.796c-.319 0-.637.078-.797.235a.705.705 0 0 0-.238.548c0 .235.079.391.159.47a.727.727 0 0 0 .557.234zM131.063 51.418v-.94l.796-.156v-3.6l-.876-.157v-.939h2.468v4.696l.796.156v.94h-3.184zm.717-7.044v-1.33h1.671v1.33h-1.671zM134.805 51.417v-.939l.796-.156v-3.6l-.875-.157v-.939h2.308l.08.705v.156c.159-.313.318-.548.557-.704.239-.157.478-.235.796-.235h.319c.079 0 .239 0 .318.078l-.159 1.409-.796-.078c-.239 0-.398 0-.557.078-.16.078-.239.235-.398.391v2.817l.796.157v.94h-3.185v.077zM139.502 51.418v-.94l.797-.156v-3.6l-.876-.157v-.939h2.468v4.696l.796.156v.94h-3.185zm.717-7.044v-1.33h1.672v1.33h-1.672zM143.244 51.417v-.939l.796-.156v-3.6h-.876v-1.096h.876V45c0-.626.159-1.174.557-1.487a2.422 2.422 0 0 1 1.592-.548c.16 0 .319 0 .558.079.159 0 .318.078.477.078l-.159 1.174c-.08 0-.159-.078-.318-.078h-.319c-.239 0-.478.078-.637.234-.159.157-.239.313-.239.626v.627h1.354V46.8h-1.354v3.6l1.035.157v.939h-3.343v-.079zM149.214 53.765h-.477c-.159 0-.319-.078-.478-.078l.159-1.174h.478c.239 0 .398-.078.557-.157.159-.156.319-.313.398-.469l.16-.391-1.991-4.774-.716-.078v-.94h3.105v.94l-.717.078.955 2.582.08.313 1.115-2.895-.717-.078v-.94h2.946v.94l-.637.078-2.229 5.634c-.08.235-.239.548-.398.705-.16.235-.398.391-.637.548a3.02 3.02 0 0 1-.956.156z" fill="#8C8C8C"/>
        <path d="M62.358 32.244c-1.671 0-2.945-.47-3.9-1.33-.956-.862-1.434-2.036-1.434-3.523 0-1.017.319-1.878.876-2.66.557-.783 1.433-1.41 2.468-1.8 1.115-.47 2.468-.627 4.06-.627h2.15v-1.173c0-.783-.239-1.41-.717-1.879-.477-.47-1.114-.704-2.07-.704-.477 0-.875.078-1.273.156-.398.079-.717.313-1.035.47l-.319 2.113H57.98l-.08-4.226c.876-.47 1.831-.86 2.787-1.174.955-.313 2.15-.47 3.343-.47 2.15 0 3.822.47 5.095 1.487 1.274 1.018 1.911 2.348 1.911 4.227V28.409c0 .235 0 .391.08.626l1.751.235v2.582h-5.493c-.08-.313-.239-.548-.319-.86l-.238-.94c-.558.626-1.115 1.174-1.831 1.566a5.9 5.9 0 0 1-2.628.626zm1.195-3.21c.636 0 1.194-.156 1.751-.39.557-.313.955-.627 1.274-1.096v-2.583h-2.23c-.955 0-1.75.235-2.228.626-.478.47-.717.94-.717 1.566 0 .547.16 1.017.557 1.33.398.391.956.548 1.593.548zM81.466 32.244c-1.194 0-2.389-.079-3.424-.313-1.035-.235-2.07-.548-3.025-1.018l-.08-4.539h3.105l.558 2.348c.318.156.716.313 1.114.391.398.079.876.157 1.433.157.956 0 1.672-.157 2.07-.47.398-.313.637-.704.637-1.174s-.239-.86-.637-1.174c-.398-.313-1.274-.626-2.547-.939-1.911-.391-3.424-1.017-4.3-1.878-.955-.86-1.353-1.878-1.353-3.209 0-.86.239-1.721.717-2.426.477-.704 1.194-1.33 2.15-1.8.954-.47 2.149-.704 3.661-.704 1.274 0 2.389.078 3.424.313 1.035.235 1.91.548 2.627.939l.08 4.46H84.57l-.477-2.112c-.239-.235-.558-.313-.956-.47-.398-.078-.796-.156-1.273-.156-.796 0-1.354.156-1.831.47-.398.312-.637.704-.637 1.173 0 .313.08.548.239.783.159.235.477.47.875.704.398.235 1.035.391 1.911.626 2.07.47 3.503 1.096 4.458 1.8.956.783 1.433 1.8 1.433 3.209 0 1.487-.557 2.74-1.672 3.678-1.353.861-2.945 1.33-5.174 1.33zM94.76 31.93v-1.878l2.468-.391V12.444h-5.015l-.478 3.052h-2.23v-5.322h18.471v5.244h-2.229l-.478-3.053h-5.016v17.218l2.468.391v1.878h-7.96v.079zM115.46 32.244c-1.513 0-2.866-.314-3.981-1.018a7.51 7.51 0 0 1-2.627-2.817c-.637-1.252-.956-2.661-.956-4.226v-.705c0-1.565.319-2.895.956-4.148.637-1.173 1.512-2.19 2.547-2.895 1.035-.704 2.23-1.017 3.503-1.017 1.513 0 2.707.313 3.742.86 1.035.548 1.752 1.409 2.229 2.505a9.413 9.413 0 0 1 .796 3.834v1.879h-10.668l-.079.078a7.32 7.32 0 0 0 .557 2.74c.318.782.876 1.408 1.513 1.877.637.47 1.433.705 2.388.705a9.376 9.376 0 0 0 2.707-.392 6.979 6.979 0 0 0 1.99-1.174l1.194 1.879c-.557.548-1.353 1.017-2.309 1.409-.955.39-2.149.626-3.502.626zm-4.299-10.018h7.563v-.391c0-.783-.16-1.487-.398-2.113a3.894 3.894 0 0 0-1.274-1.487c-.557-.392-1.274-.548-2.07-.548-.637 0-1.274.156-1.831.548a4.342 4.342 0 0 0-1.354 1.565c-.318.783-.557 1.487-.636 2.426zM131.779 32.244c-1.512 0-2.786-.313-3.901-1.018-1.114-.704-1.99-1.643-2.547-2.817-.637-1.252-.876-2.661-.876-4.226v-.704a9.93 9.93 0 0 1 .876-4.148c.557-1.253 1.433-2.192 2.547-2.896 1.115-.704 2.389-1.096 3.981-1.096 1.353 0 2.468.235 3.503.626 1.035.392 1.831 1.018 2.547 1.8l.08 3.913h-2.309l-.477-2.817c-.319-.313-.796-.626-1.274-.86-.557-.236-1.115-.314-1.831-.314-.876 0-1.672.235-2.389.783-.636.548-1.194 1.174-1.592 2.113-.398.86-.557 1.8-.557 2.896v.626c0 1.174.159 2.19.557 3.052.319.86.876 1.565 1.513 2.035.637.47 1.433.704 2.309.704a3.991 3.991 0 0 0 2.547-.861c.637-.548 1.115-1.33 1.194-2.27h2.707v.079c-.079.939-.318 1.8-.876 2.582a5.185 5.185 0 0 1-2.149 1.957c-1.115.626-2.229.86-3.583.86zM139.423 31.93v-1.878l2.468-.39V10.956l-2.468-.392V8.61h5.493v9.313c.557-.783 1.274-1.409 2.07-1.8a6.243 6.243 0 0 1 2.707-.626c1.751 0 3.105.548 4.14 1.565.955 1.017 1.433 2.66 1.433 4.774v7.826l2.468.391v1.879h-7.962v-1.879l2.468-.39v-7.905c0-1.33-.318-2.348-.875-2.974-.558-.626-1.433-.94-2.628-.94-.796 0-1.592.157-2.229.549-.637.39-1.194.939-1.672 1.565v9.626l2.468.391v1.878h-7.881v.079zM160.122 29.896c0-.392.08-.705.239-1.018a1.55 1.55 0 0 1 .716-.704c.319-.157.637-.235.956-.235.318 0 .716.078.955.235.319.157.557.391.717.704.159.313.238.626.238 1.018 0 .391-.079.704-.238 1.017-.16.313-.398.548-.717.783-.318.156-.637.313-1.035.313-.398 0-.716-.079-1.035-.313-.318-.157-.557-.47-.716-.783 0-.313-.08-.626-.08-1.017zm.319 0c0 .313.079.626.238.86.16.235.319.47.637.627.239.156.558.235.796.235.319 0 .558-.079.796-.235.239-.157.478-.392.558-.626.159-.235.239-.548.239-.861 0-.313-.08-.626-.239-.861-.159-.235-.319-.47-.558-.626a1.552 1.552 0 0 0-.796-.235c-.318 0-.557.078-.796.235a2.412 2.412 0 0 0-.637.626c-.159.235-.238.548-.238.86zm1.194.235v.939h-.398V28.8h.796c.318 0 .477.078.637.157a.705.705 0 0 1 .238.547c0 .235-.079.392-.318.47.239.078.318.313.318.548v.156c0 .157 0 .235.08.313v.079h-.398v-.627c0-.156-.159-.234-.398-.234h-.557v-.078zm0-.392h.398c.159 0 .239 0 .318-.078.08-.078.159-.157.159-.235 0-.156 0-.235-.079-.313-.08-.078-.159-.078-.398-.078h-.398v.704z" fill="#fff"/>
        <path d="M155.982 49.383h-.716v2.034h-.319v-2.034h-.796v-.235h1.831v.235zM156.699 49.148l.796 1.878.797-1.878h.398v2.27h-.319v-1.801l-.796 1.879h-.239l-.796-1.879V51.417h-.318v-2.27h.477z" fill="#8C8C8C"/>
    </g>
    <defs>
        <clipPath id="oi4j26gc1a">
            <path fill="#fff" transform="translate(.5)" d="M0 0h164v54H0z"/>
        </clipPath>
    </defs>
</svg>
