<svg width="152" height="44" viewBox="0 0 152 44" fill="none" xmlns="http://www.w3.org/2000/svg">
    <path fill-rule="evenodd" clip-rule="evenodd" d="M59.884 29.197a3.79 3.79 0 0 0 1.716-.407c.507-.241.94-.61 1.258-1.074v-2.53h-2.13a3.148 3.148 0 0 0-2.148.65 2.025 2.025 0 0 0-.733 1.569c-.03.5.169.986.54 1.324.424.332.956.498 1.494.468h.003zm-1.154 3.197a5.408 5.408 0 0 1-3.788-1.28 4.473 4.473 0 0 1-1.406-3.485 4.414 4.414 0 0 1 .82-2.65 5.387 5.387 0 0 1 2.428-1.79c1.266-.467 2.61-.689 3.958-.65h2.122v-1.19a2.417 2.417 0 0 0-2.693-2.59 4.305 4.305 0 0 0-1.251.17 3.566 3.566 0 0 0-.999.478l-.34 2.117H54.48l-.059-4.159c.863-.483 1.776-.87 2.723-1.153a11.272 11.272 0 0 1 3.271-.444 7.715 7.715 0 0 1 4.957 1.458 5.025 5.025 0 0 1 1.82 4.166v6.6c0 .217.002.432.007.644.005.205.021.41.051.614l1.67.238v2.59h-5.357a20.371 20.371 0 0 1-.325-.887 5.508 5.508 0 0 1-.238-.947 6.073 6.073 0 0 1-1.813 1.561c-.754.406-1.6.61-2.456.589zM77.289 32.395a15.482 15.482 0 0 1-3.342-.34 15.193 15.193 0 0 1-2.967-.978l-.044-4.528h3.004l.577 2.309c.352.174.72.308 1.102.4.449.104.908.154 1.369.148a3.344 3.344 0 0 0 2.042-.478 1.46 1.46 0 0 0 .596-1.185 1.492 1.492 0 0 0-.629-1.176 6.344 6.344 0 0 0-2.505-.896 8.76 8.76 0 0 1-4.195-1.832 4.14 4.14 0 0 1-1.347-3.181 4.534 4.534 0 0 1 .673-2.428 4.743 4.743 0 0 1 2.057-1.76 8.196 8.196 0 0 1 3.544-.667c1.112-.01 2.222.106 3.308.348a9.891 9.891 0 0 1 2.523.91l.044 4.38h-2.983l-.46-2.1a2.803 2.803 0 0 0-.94-.445 4.623 4.623 0 0 0-1.22-.148 2.86 2.86 0 0 0-1.747.46 1.42 1.42 0 0 0-.607 1.184c-.001.271.073.538.215.77.216.296.51.527.85.665a9.1 9.1 0 0 0 1.851.597c1.563.27 3.046.89 4.337 1.812a3.902 3.902 0 0 1 1.361 3.176 4.508 4.508 0 0 1-1.621 3.61 7.331 7.331 0 0 1-4.846 1.373zM90.242 32.084V30.22l2.413-.414V12.742h-4.883l-.43 2.983h-2.19V10.53h17.907v5.195h-2.16l-.444-2.983H95.57v17.064l2.413.414v1.864h-7.741zM106.193 22.477h7.385v-.384a5 5 0 0 0-.407-2.065 3.266 3.266 0 0 0-1.213-1.432 3.64 3.64 0 0 0-2.021-.525 2.982 2.982 0 0 0-1.775.57 4.358 4.358 0 0 0-1.313 1.552 6.49 6.49 0 0 0-.681 2.22l.025.064zm4.188 9.916a7.204 7.204 0 0 1-3.863-1.014 6.766 6.766 0 0 1-2.538-2.819 9.273 9.273 0 0 1-.896-4.176v-.65a8.67 8.67 0 0 1 .94-4.077 7.545 7.545 0 0 1 2.506-2.842 6.023 6.023 0 0 1 3.411-1.043 6.838 6.838 0 0 1 3.618.888 5.572 5.572 0 0 1 2.197 2.494 8.952 8.952 0 0 1 .74 3.781v1.82h-10.389l-.044.074a7.2 7.2 0 0 0 .539 2.73c.305.75.816 1.399 1.473 1.872a3.899 3.899 0 0 0 2.309.68 7.345 7.345 0 0 0 2.597-.422 5.969 5.969 0 0 0 1.932-1.16l1.14 1.893a6.973 6.973 0 0 1-2.267 1.398 9.086 9.086 0 0 1-3.405.573zM126.213 32.393a6.98 6.98 0 0 1-3.789-1.014 6.776 6.776 0 0 1-2.506-2.819 9.356 9.356 0 0 1-.888-4.176v-.622a9.406 9.406 0 0 1 .858-4.085 6.67 6.67 0 0 1 6.325-3.907 8.433 8.433 0 0 1 3.396.637c.933.397 1.77.992 2.45 1.745l.074 3.847h-2.279l-.504-2.795a3.692 3.692 0 0 0-1.258-.83 4.656 4.656 0 0 0-1.777-.31 3.606 3.606 0 0 0-2.286.77 5.057 5.057 0 0 0-1.531 2.057 7.248 7.248 0 0 0-.548 2.87v.623a8.22 8.22 0 0 0 .511 3.034c.289.789.797 1.48 1.464 1.99a4.07 4.07 0 0 0 4.729-.11 3.49 3.49 0 0 0 1.194-2.235h2.625l.03.09a5.37 5.37 0 0 1-2.923 4.506 7.063 7.063 0 0 1-3.367.734zM133.635 32.083V30.22l2.413-.414v-18.51l-2.413-.416V9h5.328v9.205a5.85 5.85 0 0 1 2.028-1.79 5.593 5.593 0 0 1 2.664-.636 5.166 5.166 0 0 1 3.996 1.54 6.787 6.787 0 0 1 1.421 4.736v7.756l2.413.414v1.864h-7.741v-1.864l2.413-.414v-7.784a4.283 4.283 0 0 0-.851-2.93 3.237 3.237 0 0 0-2.538-.948 4.277 4.277 0 0 0-2.182.57 4.768 4.768 0 0 0-1.621 1.55v9.547l2.413.414v1.864l-7.743-.01z" fill="#fff"/>
    <path d="m22.008 27.028 12.194-7.039v-4.944L22.008 22.09l-5.557-3.213v4.944l5.557 3.206z" fill="#1F74DB"/>
    <path d="M36.092 30.762 22.544 38.58c-.34.197-.748.197-1.088 0L7.908 30.762a1.083 1.083 0 0 1-.544-.945V14.175c0-.385.204-.748.544-.945l13.548-7.817c.34-.197.748-.197 1.088 0l13.548 7.817c.34.197.544.552.544.945v15.642c0 .393-.204.756-.544.945zM44 22C44 9.85 34.15 0 22 0S0 9.85 0 22s9.85 22 22 22 22-9.85 22-22z" fill="#1F74DB"/>
</svg>
