<svg width="128" height="128" viewBox="0 0 128 128" fill="none" xmlns="http://www.w3.org/2000/svg">
<circle cx="48" cy="48" r="43" stroke="#0F396B" stroke-width="6"/>
<rect x="74.615" y="84.6984" width="12" height="60" rx="6" transform="rotate(-45 74.615 84.6984)" fill="#0F396B"/>
<circle cx="48" cy="48" r="22" stroke="#1F74DB" stroke-width="4"/>
<path d="M50.5283 53.4005H45.717C45.7296 52.2715 45.8176 51.2993 45.9811 50.4839C46.1572 49.6559 46.4528 48.9095 46.8679 48.2446C47.2956 47.5798 47.8616 46.9211 48.566 46.2688C49.1572 45.7419 49.673 45.2401 50.1132 44.7634C50.5535 44.2867 50.8994 43.7975 51.1509 43.2957C51.4025 42.7814 51.5283 42.2106 51.5283 41.5833C51.5283 40.8557 51.4151 40.2536 51.1887 39.7769C50.9748 39.2876 50.6478 38.9176 50.2075 38.6667C49.7799 38.4158 49.239 38.2903 48.5849 38.2903C48.044 38.2903 47.5409 38.4095 47.0755 38.6478C46.6101 38.8737 46.2264 39.2249 45.9245 39.7016C45.6352 40.1783 45.4843 40.8056 45.4717 41.5833H40C40.0377 39.8647 40.434 38.4471 41.1887 37.3306C41.956 36.2016 42.9811 35.3674 44.2642 34.828C45.5472 34.276 46.9874 34 48.5849 34C50.3459 34 51.8553 34.2885 53.1132 34.8656C54.3711 35.4301 55.3333 36.2643 56 37.3683C56.6667 38.4597 57 39.7894 57 41.3575C57 42.4489 56.7862 43.4211 56.3585 44.2742C55.9308 45.1147 55.3711 45.8987 54.6792 46.6263C53.9874 47.3539 53.2264 48.1066 52.3962 48.8844C51.6792 49.5242 51.1887 50.1953 50.9245 50.8979C50.673 51.6004 50.5409 52.4346 50.5283 53.4005ZM45.1509 59.2151C45.1509 58.4122 45.4277 57.7473 45.9811 57.2204C46.5346 56.681 47.2767 56.4113 48.2075 56.4113C49.1258 56.4113 49.8616 56.681 50.4151 57.2204C50.9811 57.7473 51.2642 58.4122 51.2642 59.2151C51.2642 59.9928 50.9811 60.6514 50.4151 61.1909C49.8616 61.7303 49.1258 62 48.2075 62C47.2767 62 46.5346 61.7303 45.9811 61.1909C45.4277 60.6514 45.1509 59.9928 45.1509 59.2151Z" fill="#1F74DB"/>
</svg>
