<svg width="32" height="32" viewBox="0 0 32 32" fill="none" xmlns="http://www.w3.org/2000/svg">
    <path d="M16 19.273a3.273 3.273 0 1 0 0-6.546 3.273 3.273 0 0 0 0 6.546z" stroke="#000" stroke-width="1.5" stroke-linecap="round" stroke-linejoin="round"/>
    <path d="M24.073 19.273a1.8 1.8 0 0 0 .36 1.985l.065.066a2.182 2.182 0 1 1-3.087 3.087l-.066-.065a1.8 1.8 0 0 0-1.985-.36 1.8 1.8 0 0 0-1.091 1.647v.186a2.182 2.182 0 0 1-4.364 0v-.099a1.8 1.8 0 0 0-1.178-1.647 1.8 1.8 0 0 0-1.986.36l-.065.066a2.181 2.181 0 0 1-3.561-.709 2.182 2.182 0 0 1 .473-2.379l.066-.065a1.8 1.8 0 0 0 .36-1.986 1.8 1.8 0 0 0-1.648-1.09h-.185a2.182 2.182 0 0 1 0-4.365h.098a1.8 1.8 0 0 0 1.647-1.178 1.8 1.8 0 0 0-.36-1.986l-.065-.065a2.183 2.183 0 1 1 3.087-3.087l.066.065a1.8 1.8 0 0 0 1.986.36h.087a1.8 1.8 0 0 0 1.09-1.647V6.18a2.182 2.182 0 0 1 4.365 0v.098a1.8 1.8 0 0 0 1.09 1.648 1.8 1.8 0 0 0 1.986-.36l.066-.066a2.18 2.18 0 0 1 3.56.708 2.182 2.182 0 0 1-.473 2.38l-.066.065a1.8 1.8 0 0 0-.36 1.986v.087a1.8 1.8 0 0 0 1.648 1.091h.185a2.182 2.182 0 1 1 0 4.364h-.098a1.8 1.8 0 0 0-1.647 1.09v0z" stroke="#000" stroke-width="1.5" stroke-linecap="round" stroke-linejoin="round"/>
</svg>
