<svg width="33" height="32" viewBox="0 0 33 32" fill="none" xmlns="http://www.w3.org/2000/svg">
    <mask id="a0k92sn1ca" fill="#fff">
        <path fill-rule="evenodd" clip-rule="evenodd" d="M6.833 5A3.333 3.333 0 0 0 3.5 8.333v10.561a3.333 3.333 0 0 0 3.333 3.334h3.6v3.938a.833.833 0 0 0 1.374.634l5.367-4.572h8.993a3.333 3.333 0 0 0 3.333-3.334V8.334A3.333 3.333 0 0 0 26.167 5H6.833z"/>
    </mask>
    <path d="M10.434 22.228h1.5v-1.5h-1.5v1.5zm0 3.938h-1.5 1.5zm1.373.634-.973-1.142.973 1.142zm5.367-4.572v-1.5h-.552l-.42.358.972 1.142zM5 8.333C5 7.321 5.82 6.5 6.833 6.5v-3A4.833 4.833 0 0 0 2 8.333h3zm0 10.561V8.334H2v10.56h3zm1.833 1.834A1.833 1.833 0 0 1 5 18.894H2a4.833 4.833 0 0 0 4.833 4.834v-3zm3.6 0h-3.6v3h3.6v-3zm-1.5 1.5v3.938h3v-3.938h-3zm0 3.938c0 1.99 2.332 3.066 3.847 1.776l-1.945-2.284a.667.667 0 0 1 1.098.508h-3zm3.847 1.776 5.367-4.573-1.946-2.283-5.367 4.572 1.946 2.284zm13.387-7.214h-8.993v3h8.993v-3zM28 18.894c0 1.013-.82 1.834-1.833 1.834v3A4.833 4.833 0 0 0 31 18.894h-3zm0-10.56v10.56h3V8.334h-3zM26.167 6.5C27.179 6.5 28 7.32 28 8.333h3A4.833 4.833 0 0 0 26.167 3.5v3zm-19.334 0h19.334v-3H6.833v3z" fill="#000" mask="url(#a0k92sn1ca)"/>
    <rect x="7.5" y="10" width="18" height="1.5" rx=".75" fill="#000"/>
    <rect x="7.5" y="15" width="11" height="1.5" rx=".75" fill="#000"/>
</svg>
