<svg width="24" height="24" viewBox="0 0 24 24" fill="none" xmlns="http://www.w3.org/2000/svg">
    <rect x="9.75" y="7.75" width="4.5" height="5.25" rx="2.25" stroke="#0F396B" stroke-width="1.5"/>
    <mask id="gtiyj6upua" fill="#fff">
        <path d="M6 19.167A4.167 4.167 0 0 1 10.167 15h3.666A4.167 4.167 0 0 1 18 19.167c0 .46-.373.833-.833.833H6.833A.833.833 0 0 1 6 19.167z"/>
    </mask>
    <path d="M6 19.167A4.167 4.167 0 0 1 10.167 15h3.666A4.167 4.167 0 0 1 18 19.167c0 .46-.373.833-.833.833H6.833A.833.833 0 0 1 6 19.167z" stroke="#0F396B" stroke-width="3" mask="url(#gtiyj6upua)"/>
    <path fill-rule="evenodd" clip-rule="evenodd" d="M10.002 2 10 2.09V3.5H5.25a.75.75 0 0 0-.75.75v16.5c0 .414.336.75.75.75h13.5a.75.75 0 0 0 .75-.75V4.25a.75.75 0 0 0-.75-.75H14V2.09c0-.03 0-.06-.002-.09h4.752A2.25 2.25 0 0 1 21 4.25v16.5A2.25 2.25 0 0 1 18.75 23H5.25A2.25 2.25 0 0 1 3 20.75V4.25A2.25 2.25 0 0 1 5.25 2h4.752z" fill="#0F396B"/>
    <rect x="11" width="2" height="5" rx="1" fill="#0F396B"/>
</svg>
