<svg width="24" height="24" viewBox="0 0 24 24" fill="none" xmlns="http://www.w3.org/2000/svg">
    <circle cx="12" cy="12.063" r="10.25" stroke="#0F396B" stroke-width="1.5"/>
    <path d="M12.827 14.903H10.79c.006-.52.048-.966.128-1.337.085-.371.224-.705.417-1.003.193-.302.455-.61.784-.925.262-.245.495-.477.7-.694.21-.223.374-.454.493-.694.12-.246.18-.523.18-.831 0-.349-.057-.64-.171-.874a1.13 1.13 0 0 0-.486-.531c-.21-.126-.474-.189-.792-.189-.262 0-.509.054-.742.163a1.3 1.3 0 0 0-.562.505c-.142.223-.22.515-.23.874H8.25c.017-.748.193-1.37.528-1.868a3.043 3.043 0 0 1 1.355-1.122c.569-.251 1.205-.377 1.91-.377.778 0 1.443.131 1.994.394.557.257.98.634 1.27 1.131.295.497.443 1.097.443 1.8 0 .502-.097.954-.29 1.353a4.595 4.595 0 0 1-.767 1.106c-.318.342-.662.688-1.031 1.037-.324.29-.543.602-.656.934a3.686 3.686 0 0 0-.18 1.148zm-2.25 2.664c0-.342.113-.628.34-.856.234-.229.546-.343.938-.343.392 0 .702.114.93.343.232.228.348.514.348.857 0 .33-.116.61-.349.84-.227.228-.537.342-.929.342s-.704-.114-.937-.343a1.145 1.145 0 0 1-.341-.84z" fill="#0F396B"/>
</svg>
