<svg width="24" height="24" viewBox="0 0 24 24" fill="none" xmlns="http://www.w3.org/2000/svg">
    <path d="M12 14.742 18.65 10.9V8.206L12 12.046l-3.031-1.75v2.694l3.03 1.752z" fill="#0F396B"/>
    <path d="m19.683 16.78-7.39 4.263a.588.588 0 0 1-.594 0l-7.39-4.264a.59.59 0 0 1-.297-.515V7.732c0-.21.112-.408.297-.516l7.394-4.263a.588.588 0 0 1 .594 0l7.39 4.263a.59.59 0 0 1 .296.516v8.532c0 .21-.11.408-.296.515h-.005zM23.995 12c0-6.627-5.37-12-11.996-12C5.373 0 0 5.373 0 12s5.373 12 12 12 12-5.373 12-12h-.004z" fill="#0F396B"/>
</svg>
