<svg width="32" height="22" viewBox="0 0 32 22" fill="none" xmlns="http://www.w3.org/2000/svg">
    <path d="M16 1.294c4.612 0 7.76.602 8.31.784a.74.74 0 0 1 .149.213l2.143 5.554.084.22.156.174c.738.822 1.651 1.916 1.839 2.246.136.233.2.712.2.965l.052 5.171c0 .22-.084.428-.24.59a.84.84 0 0 1-.588.245H3.897a.832.832 0 0 1-.829-.835l.052-5.178c0-.246.071-.718.2-.958.189-.33 1.102-1.417 1.84-2.246l.155-.174.085-.22L7.537 2.31a.73.73 0 0 1 .155-.233c.557-.188 3.704-.783 8.309-.783zM16 0c-4.85 0-8.217.654-8.8.88-.583.227-.861.945-.861.945L4.195 7.38S2.563 9.197 2.194 9.85c-.37.654-.37 1.586-.37 1.586l-.05 5.171a2.125 2.125 0 0 0 2.123 2.143h24.207a2.125 2.125 0 0 0 2.125-2.143l-.052-5.171s0-.932-.37-1.586c-.368-.654-2-2.472-2-2.472l-2.144-5.554s-.278-.718-.861-.945C24.219.654 20.852 0 16 0z" fill="#1F74DB"/>
    <path d="M2.725 18.356h.37l3.516.058v2.207c0 .22-.175.395-.395.395H3.12a.392.392 0 0 1-.395-.395v-2.259m-.945-2.245-.026 1.34v3.158c0 .75.609 1.366 1.366 1.366h3.096c.758 0 1.366-.609 1.366-1.366v-3.159l-4.475-.064-1.327-1.276zM29.277 18.382v2.259c0 .22-.175.395-.395.395h-3.096a.392.392 0 0 1-.395-.395v-2.207l3.517-.052h.369zm.945-2.246-1.327 1.275-4.475.065v3.158c0 .751.609 1.366 1.366 1.366h3.096c.758 0 1.366-.608 1.366-1.366v-3.158l-.026-1.34zM29.121 6.518c.667 0 .978.097 1.03.13.272.2.389.426.408.595h-2.215c0-.233 0-.466.02-.654a.742.742 0 0 1 .174-.052s.253-.026.577-.026m0-.97c-.382 0-.674.025-.674.025s-.952.097-1.036.777c-.084.68 0 1.87 0 1.87h3.387s.635-.038.725-.73c.072-.525-.174-1.153-.79-1.619-.362-.272-1.081-.33-1.612-.33v.006zM2.88 6.518c.312 0 .558.02.564.02.058.006.136.032.194.051.013.194.02.427.02.654H1.443c.02-.169.136-.389.408-.596.065-.039.376-.136 1.036-.136m0-.97c-.537 0-1.25.058-1.612.33-.622.466-.868 1.093-.79 1.618.097.686.725.731.725.731h3.387s.078-1.19 0-1.87c-.078-.68-1.036-.777-1.036-.777s-.292-.026-.674-.026V5.54z" fill="#1F74DB"/>
    <path d="M15.405 12.964h9.397c.524 0 1.036-.155 1.457-.473a4.952 4.952 0 0 0 1.205-1.326c.097-.149-.02-.35-.195-.35h-5.815a.498.498 0 0 0-.324.117c-.227.194-.59.699-.57 1.928M15.405 12.964H7.194a2.408 2.408 0 0 1-1.457-.473 4.953 4.953 0 0 1-1.205-1.326c-.097-.149.02-.35.195-.35h5.815c.117 0 .233.04.324.117.226.194.59.699.57 1.928M10.438 10.816h11.01M4.992 7.605H27.01" stroke="#1F74DB" stroke-width=".971" stroke-miterlimit="10"/>
</svg>
