<svg width="59" height="22" viewBox="0 0 59 22" fill="none" xmlns="http://www.w3.org/2000/svg">
    <path d="M51.496 16.858c1.805-.494 3.646-1.297 5.282-2.58.45-.353.722-.884.722-1.451v-1.798l-.715-.877.081-3.927a.707.707 0 0 0-.663-.722L50.847 5.2s-5.23-3.736-10.675-4.149c-5.444-.412-9.533 0-9.533 0s-5.002.236-13.335 5.85M16.67 17.705l25.727-.332" stroke="#1F74DB" stroke-width="1.474" stroke-miterlimit="10" stroke-linecap="round"/>
    <path d="M45.528 4.84s-2.63 2.218-10.881 2.218H16.884s-6.358.331-10.027 1.046c-3.22.626-4.914 2.402-5.29 2.83a.277.277 0 0 0-.066.213l.325 4.708c.029.413.184.818.456 1.128.184.199.406.383.641.412.575.082 5.202.42 5.202.42" stroke="#1F74DB" stroke-width="1.474" stroke-miterlimit="10" stroke-linecap="round"/>
    <path d="M12.324 12.289a3.685 3.685 0 0 1 0 7.368 3.685 3.685 0 0 1 0-7.368zm0-1.474a5.154 5.154 0 0 0-5.157 5.158 5.154 5.154 0 0 0 5.157 5.158 5.154 5.154 0 0 0 5.157-5.158 5.154 5.154 0 0 0-5.157-5.158z" fill="#1F74DB"/>
    <path d="M33.652 1.163v5.799" stroke="#1F74DB" stroke-width="1.105" stroke-miterlimit="10"/>
    <path d="M2.15 11.803h2.866c.34 0 .663-.126.936-.369.236-.213.508-.537.766-1.031" stroke="#1F74DB" stroke-width="1.105" stroke-miterlimit="10" stroke-linecap="round"/>
    <path d="M22.078 4.228v2.734" stroke="#1F74DB" stroke-width="1.105" stroke-miterlimit="10"/>
    <path d="M46.854 12.289a3.685 3.685 0 0 1 0 7.368 3.685 3.685 0 0 1 0-7.368zm0-1.474a5.154 5.154 0 0 0-5.157 5.158 5.154 5.154 0 0 0 5.157 5.158 5.154 5.154 0 0 0 5.157-5.158 5.154 5.154 0 0 0-5.157-5.158z" fill="#1F74DB"/>
</svg>
