<svg width="64" height="64" viewBox="0 0 64 64" fill="none" xmlns="http://www.w3.org/2000/svg">
    <mask id="x72arltnva" fill="#fff">
        <path fill-rule="evenodd" clip-rule="evenodd" d="M11 7a6 6 0 0 0-6 6v25.991a6 6 0 0 0 6 6h8V56.25a.75.75 0 0 0 1.265.545l12.5-11.803H53a6 6 0 0 0 6-6V13a6 6 0 0 0-6-6H11z"/>
    </mask>
    <path d="M19 44.991h4v-4h-4v4zm0 11.258h4-4zm1.265.545-2.746-2.908 2.746 2.908zm12.5-11.803v-4h-1.59l-1.157 1.092 2.747 2.908zM9 13a2 2 0 0 1 2-2V3C5.477 3 1 7.477 1 13h8zm0 25.991V13H1v25.991h8zm2 2a2 2 0 0 1-2-2H1c0 5.523 4.477 10 10 10v-8zm8 0h-8v8h8v-8zm-4 4V56.25h8V44.99h-8zm0 11.258c0 4.166 4.982 6.314 8.011 3.453l-5.492-5.816C19.592 51.928 23 53.398 23 56.248h-8zm8.011 3.453 12.5-11.802-5.493-5.817-12.5 11.803 5.493 5.816zM53 40.992H32.765v8H53v-8zm2-2a2 2 0 0 1-2 2v8c5.523 0 10-4.478 10-10h-8zM55 13v25.991h8V13h-8zm-2-2a2 2 0 0 1 2 2h8c0-5.523-4.477-10-10-10v8zm-42 0h42V3H11v8z" fill="#0F396B" mask="url(#x72arltnva)"/>
    <rect x="16" y="19" width="32" height="3" rx="1.5" fill="#0F396B"/>
    <rect x="16" y="30" width="24" height="3" rx="1.5" fill="#0F396B"/>
    <circle cx="55" cy="11" r="8" fill="#1F74DB"/>
</svg>
