<svg xmlns="http://www.w3.org/2000/svg" width="9" height="12" viewBox="0 0 9 12">
    <g fill="none" fill-rule="evenodd">
        <g fill="#16488C">
            <g>
                <path d="M4.2 6c1.495 0 2.7-1.805 2.7-3.3C6.9 1.211 5.689 0 4.2 0S1.5 1.211 1.5 2.7C1.5 4.195 2.704 6 4.2 6zM7.397 7.488C6.644 7.22 5.477 6.9 4.2 6.9c-1.277 0-2.444.32-3.197.588C.403 7.701 0 8.27 0 8.903V11.1c0 .166.134.3.3.3h7.8c.166 0 .3-.134.3-.3V8.903c0-.633-.403-1.202-1.003-1.415z" transform="translate(-39 -156) translate(39.1 156.3)"/>
            </g>
        </g>
    </g>
</svg>
