<svg width="16" height="16" viewBox="0 0 16 16" fill="none" xmlns="http://www.w3.org/2000/svg">
    <path d="M14.259 11.613v2a1.332 1.332 0 0 1-1.454 1.334A13.193 13.193 0 0 1 7.052 12.9a13 13 0 0 1-4-4 13.193 13.193 0 0 1-2.047-5.78 1.333 1.333 0 0 1 1.327-1.453h2a1.333 1.333 0 0 1 1.333 1.146 8.56 8.56 0 0 0 .467 1.874 1.333 1.333 0 0 1-.3 1.406l-.847.847a10.666 10.666 0 0 0 4 4l.847-.847a1.333 1.333 0 0 1 1.407-.3 8.557 8.557 0 0 0 1.873.467 1.333 1.333 0 0 1 1.147 1.353z" stroke="#1F74DB" stroke-linecap="round" stroke-linejoin="round"/>
    <path d="M9.5 4.167A3.333 3.333 0 0 1 12.133 6.8M9.5 1.5a6 6 0 0 1 5.3 5.293" stroke="#0F396B" stroke-linecap="round" stroke-linejoin="round"/>
</svg>
