<svg width="128" height="128" viewBox="0 0 128 128" fill="none" xmlns="http://www.w3.org/2000/svg">
    <path fill-rule="evenodd" clip-rule="evenodd" d="M8 35a2 2 0 1 1 4 0v2h96v-2a2 2 0 1 1 4 0v9.553l6.706-8.755c.572-.82 1.801-1.053 2.755-.488l.064.04c.954.546 1.251 1.678.699 2.497l-8.966 14.596c-.262.38-.716.603-1.258.665v20.036a19.066 19.066 0 0 0-4-2.881V41H12v46h68c0 1.372.145 2.71.422 4H12v2a2 2 0 1 1-4 0V75H7a1 1 0 0 1-1-1V54a1 1 0 0 1 1-1h1V35zm108.551 44.709 5.673-9.237c.552-.82.255-1.951-.699-2.497l-.064-.04c-.954-.565-2.183-.331-2.755.488l-5.007 6.537a19.002 19.002 0 0 1 2.852 4.749zM47 56a3 3 0 0 0-3 3v10a3 3 0 0 0 3 3h25a3 3 0 0 0 3-3V59a3 3 0 0 0-3-3H47zm-1 3a1 1 0 0 1 1-1h25a1 1 0 0 1 1 1v10a1 1 0 0 1-1 1H47a1 1 0 0 1-1-1V59z" fill="#0F396B"/>
    <circle cx="99" cy="87" r="15" stroke="#1F74DB" stroke-width="4"/>
    <rect x="98" y="77" width="2" height="12" rx="1" fill="#1F74DB"/>
    <rect x="105.926" y="92.344" width="2" height="8.552" rx="1" transform="rotate(128.679 105.926 92.344)" fill="#1F74DB"/>
</svg>
