<svg width="32" height="32" viewBox="0 0 32 32" fill="none" xmlns="http://www.w3.org/2000/svg">
    <g clip-path="url(#6bfgnzwhua)">
        <circle cx="16" cy="16" r="15.5" fill="#CDDFF3" stroke="#0F396B"/>
        <path d="m25.466 13.787-.021-.011c-.27-.155-.391-.41-.278-.577l2.08-2.645c.114-.158.358-.203.547-.094l.013.008c.189.105.248.324.138.482l-1.777 2.818c-.118.166-.43.177-.698.023M25.466 20.087l-.021-.011c-.27-.155-.391-.411-.278-.577l2.08-2.645c.114-.158.358-.203.547-.094l.013.007c.189.106.248.325.138.483l-1.777 2.818c-.118.166-.43.177-.698.023" fill="#0F396B"/>
        <rect x="6" y="9" width="1.333" height="14" rx=".667" fill="#0F396B"/>
        <rect x="6" y="9" width="1.333" height="14" rx=".667" fill="#0F396B"/>
        <rect x="24.667" y="9" width="1.333" height="14" rx=".667" fill="#0F396B"/>
        <rect x="5.333" y="13.333" width="1.333" height="5.333" rx=".35" fill="#0F396B"/>
        <path fill="#fff" stroke="#0F396B" stroke-width="1.333" d="M6.667 10.667h18.667v10.667H6.667z"/>
        <rect x="13" y="14.5" width="5.75" height="3" rx=".333" stroke="#0F396B" stroke-width=".833"/>
    </g>
    <defs>
        <clipPath id="6bfgnzwhua">
            <path fill="#fff" d="M0 0h32v32H0z"/>
        </clipPath>
    </defs>
</svg>
