<svg width="128" height="128" viewBox="0 0 128 128" fill="none" xmlns="http://www.w3.org/2000/svg">
    <rect x="54.5" y="112" width="9" height="4" rx="2" fill="#0F396B"/>
    <rect x="29.5" y="34" width="12" height="3" rx="1" transform="rotate(90 29.5 34)" fill="#0F396B"/>
    <rect x="34.5" y="13" width="6" height="6" rx="3" fill="#0F396B"/>
    <rect x="36.5" y="85" width="46" height="14" rx="1" stroke="#0F396B" stroke-width="2"/>
    <path d="M60 29.38c4.861 0 8.18.643 8.76.836a.79.79 0 0 1 .157.228l2.26 5.923.088.235.164.186c.778.877 1.741 2.044 1.94 2.396.142.248.21.76.21 1.029l.055 5.516a.88.88 0 0 1-.874.89H47.24a.852.852 0 0 1-.622-.262.893.893 0 0 1-.252-.628l.054-5.523c0-.263.075-.767.212-1.022.198-.352 1.16-1.512 1.939-2.396l.164-.186.089-.235 2.253-5.902a.78.78 0 0 1 .163-.249c.588-.2 3.906-.835 8.76-.835zM60 28c-5.114 0-8.664.697-9.279.939-.614.241-.907 1.008-.907 1.008l-2.26 5.923s-1.72 1.94-2.11 2.637c-.39.698-.39 1.692-.39 1.692L45 45.715C44.986 46.97 45.997 48 47.24 48h25.52c1.243 0 2.253-1.029 2.24-2.285l-.055-5.516s0-.994-.389-1.692c-.39-.697-2.11-2.637-2.11-2.637l-2.26-5.923s-.293-.767-.908-1.008C68.664 28.697 65.114 28 60 28z" fill="#0F396B"/>
    <path d="M60 29.596c4.78 0 8.043.626 8.614.815.047.04.127.154.154.222l2.222 5.775.088.229.16.182c.766.854 1.713 1.992 1.907 2.335.141.243.208.74.208 1.003l.054 5.379a.878.878 0 0 1-.248.612.869.869 0 0 1-.611.256H47.452a.84.84 0 0 1-.61-.256.866.866 0 0 1-.25-.613l.055-5.384c0-.256.073-.748.208-.997.194-.343 1.141-1.474 1.906-2.335l.161-.182.088-.229 2.215-5.755a.758.758 0 0 1 .161-.242c.578-.196 3.84-.815 8.614-.815zm0-1.346c-5.029 0-8.52.68-9.124.915-.604.236-.893.983-.893.983l-2.222 5.775s-1.692 1.892-2.075 2.572c-.382.68-.382 1.649-.382 1.649l-.054 5.378a2.206 2.206 0 0 0 2.202 2.228h25.096a2.206 2.206 0 0 0 2.202-2.228l-.054-5.378s0-.97-.382-1.65c-.383-.68-2.075-2.57-2.075-2.57l-2.222-5.776s-.289-.747-.893-.983c-.604-.235-4.096-.915-9.124-.915z" fill="#0F396B"/>
    <path d="M73.032 34.036s.28-.029.647-.029V34c.51 0 1.202.065 1.55.37.591.521.828 1.224.76 1.811-.088.776-.698.819-.698.819h-3.255s-.081-1.333 0-2.094c.08-.761.996-.87.996-.87zM46.968 34.036s-.28-.029-.647-.029V34c-.51 0-1.202.065-1.55.37-.592.521-.828 1.224-.76 1.811.088.776.698.819.698.819h3.255s.081-1.333 0-2.094c-.08-.761-.996-.87-.996-.87z" fill="#0F396B"/>
    <path fill="#0F396B" d="M48 35.5h24V37H48z"/>
    <path fill-rule="evenodd" clip-rule="evenodd" d="M73.5 46.714V50.5h-4V47H68v4a1 1 0 0 0 1 1h5a1 1 0 0 0 1-1v-5a.997.997 0 0 0-.274-.687L73.5 46.714zM46.5 46.714V50.5h4V47H52v4a1 1 0 0 1-1 1h-5a1 1 0 0 1-1-1v-5c0-.266.104-.508.274-.687l1.226 1.401z" fill="#0F396B"/>
    <path d="M71.409 41.326c.538-.449.22-1.326-.48-1.326h-4.421a.75.75 0 0 0-.697.471l-.4 1a.75.75 0 0 0 .697 1.029h3.62a.75.75 0 0 0 .48-.174l1.2-1zM48.591 41.326c-.538-.449-.22-1.326.48-1.326h4.421a.75.75 0 0 1 .697.471l.4 1a.75.75 0 0 1-.697 1.029h-3.62a.75.75 0 0 1-.48-.174l-1.2-1z" fill="#0F396B"/>
    <path fill-rule="evenodd" clip-rule="evenodd" d="M36 10h48a4 4 0 0 1 4 4v38.94a47.332 47.332 0 0 1 4-1.007V14a8 8 0 0 0-8-8H36a8 8 0 0 0-8 8v100a8 8 0 0 0 8 8h48a8 8 0 0 0 8-8V66.98a73.229 73.229 0 0 0-4 .54V114a4 4 0 0 1-4 4H36a4 4 0 0 1-4-4V14a4 4 0 0 1 4-4z" fill="#0F396B"/>
    <mask id="r729rxq9ba" fill="#fff">
        <path fill-rule="evenodd" clip-rule="evenodd" d="M116.471 59.619a1 1 0 0 0 0-1.585L101.11 46.21a1 1 0 0 0-1.61.793v6.871c-8.359.181-24.551 3.172-33 17.953 13.395-6.956 25.417-7.924 33-7.995v6.82a1 1 0 0 0 1.61.793l15.361-11.825z"/>
    </mask>
    <path d="m116.471 58.034-1.22 1.585 1.22-1.585zm0 1.585-1.22-1.585 1.22 1.585zm-15.361-13.41 1.22-1.584-1.22 1.584zm-1.61 7.664.043 2 1.957-.043v-1.957h-2zm-33 17.953-1.736-.992-3.372 5.899 6.03-3.132-.922-1.775zm33-7.995h2v-2.019l-2.019.02.019 1.999zm1.61 7.612-1.22-1.584 1.22 1.585zm14.141-11.824a1 1 0 0 1 0-1.585l2.44 3.17a3 3 0 0 0 0-4.755l-2.44 3.17zM99.89 47.794l15.361 11.825 2.44-3.17-15.361-11.824-2.44 3.17zm1.61-.792a1 1 0 0 1-1.61.792l2.44-3.17c-1.973-1.518-4.83-.112-4.83 2.378h4zm0 6.871v-6.871h-4v6.871h4zM68.236 72.82c7.922-13.859 23.192-16.77 31.307-16.946l-.086-4c-8.603.187-25.717 3.256-34.693 18.961l3.472 1.985zM99.481 61.83c-7.754.072-20.124 1.065-33.903 8.22l1.844 3.55c13.011-6.757 24.685-7.7 32.097-7.77l-.038-4zm2.019 8.82v-6.82h-4v6.82h4zm-1.61-.792a1 1 0 0 1 1.61.792h-4c0 2.49 2.857 3.896 4.83 2.377l-2.44-3.17zm15.361-11.825L99.89 69.86l2.44 3.17 15.361-11.825-2.44-3.17z" fill="#1F74DB" mask="url(#r729rxq9ba)"/>
    <path fill-rule="evenodd" clip-rule="evenodd" d="M68.748 64H37.5v12h44v-7.238c.675-.17 1.342-.328 2-.474V76a2 2 0 0 1-2 2h-44a2 2 0 0 1-2-2V64a2 2 0 0 1 2-2h33.405a44.451 44.451 0 0 0-2.157 2z" fill="#0F396B"/>
</svg>
