<svg width="32" height="32" viewBox="0 0 32 32" fill="none" xmlns="http://www.w3.org/2000/svg">
    <path fill-rule="evenodd" clip-rule="evenodd" d="M13 21H6a4 4 0 0 1-4-4v-2a4 4 0 0 1 4-4h6V9H6a6 6 0 0 0-6 6v2a6 6 0 0 0 6 6h7a6 6 0 0 0 6-6v-1h-2v1a4 4 0 0 1-4 4z" fill="#0F396B"/>
    <path fill-rule="evenodd" clip-rule="evenodd" d="M19 11h7a4 4 0 0 1 4 4v2a4 4 0 0 1-4 4h-6v2h6a6 6 0 0 0 6-6v-2a6 6 0 0 0-6-6h-7a6 6 0 0 0-6 6v1h2v-1a4 4 0 0 1 4-4z" fill="#1F74DB"/>
    <circle cx="12" cy="10" r="1" fill="#0F396B"/>
    <circle cx="14" cy="16" r="1" fill="#1F74DB"/>
    <circle cx="20" cy="22" r="1" fill="#1F74DB"/>
    <circle cx="18" cy="16" r="1" fill="#0F396B"/>
</svg>
