<svg width="24" height="24" viewBox="0 0 24 24" fill="none" xmlns="http://www.w3.org/2000/svg">
<path d="M23.4984 5.0232C23.2224 3.9912 22.4088 3.1776 21.3768 2.9016C19.5048 2.4 12 2.4 12 2.4C12 2.4 4.4952 2.4 2.6232 2.9016C1.5912 3.1776 0.7776 3.9912 0.5016 5.0232C-3.57628e-08 6.8952 0 12 0 12C0 12 -3.57628e-08 17.1048 0.5016 18.9768C0.7776 20.0088 1.5912 20.8224 2.6232 21.0984C4.4952 21.6 12 21.6 12 21.6C12 21.6 19.5048 21.6 21.3768 21.0984C22.41 20.8224 23.2224 20.0088 23.4984 18.9768C24 17.1048 24 12 24 12C24 12 24 6.8952 23.4984 5.0232ZM9.6 15.1176V8.8824C9.6 8.4204 10.1004 8.1324 10.5 8.3628L15.9 11.4804C16.2996 11.7108 16.2996 12.2892 15.9 12.5196L10.5 15.6372C10.1004 15.8688 9.6 15.5796 9.6 15.1176Z" fill="#263238"/>
</svg>
