<svg width="24" height="24" viewBox="0 0 24 24" fill="none" xmlns="http://www.w3.org/2000/svg">
<path d="M24 4.24899C23.1166 4.63117 22.1678 4.88835 21.1718 5.00435C22.189 4.41086 22.969 3.47115 23.3363 2.3507C22.3856 2.90014 21.3315 3.2994 20.2091 3.51522C19.3109 2.58271 18.0316 2 16.6157 2C13.8964 2 11.6922 4.14828 11.6922 6.79654C11.6922 7.17242 11.7365 7.53931 11.8195 7.88911C7.7277 7.68948 4.10015 5.7795 1.67071 2.87676C1.24795 3.58536 1.00519 4.40906 1.00519 5.28941C1.00519 6.953 1.87377 8.42146 3.19465 9.28113C2.38791 9.25595 1.62825 9.04013 0.964578 8.68134C0.964578 8.70202 0.964578 8.7209 0.964578 8.74159C0.964578 11.0661 2.66113 13.0049 4.91427 13.4446C4.50167 13.5543 4.066 13.6128 3.61648 13.6128C3.29987 13.6128 2.99065 13.5822 2.69067 13.5273C3.31741 15.4328 5.1358 16.8203 7.29018 16.859C5.60563 18.1458 3.48264 18.9129 1.17503 18.9129C0.778124 18.9129 0.385831 18.8904 0 18.8454C2.1793 20.206 4.76659 21 7.54771 21C16.6046 21 21.5558 13.691 21.5558 7.35226C21.5558 7.14454 21.5512 6.93772 21.5419 6.73179C22.5047 6.05466 23.34 5.21028 24 4.24899Z" fill="#263238"/>
</svg>
