<svg width="24" height="24" viewBox="0 0 24 24" fill="none" xmlns="http://www.w3.org/2000/svg">
<path d="M7.41488 1C3.87746 1 1 3.88012 1 7.41846V16.5851C1 20.1225 3.88012 23 7.41846 23H16.5851C20.1225 23 23 20.1199 23 16.5815V7.41488C23 3.87746 20.1199 1 16.5815 1H7.41488ZM18.4167 4.66667C18.9227 4.66667 19.3333 5.07733 19.3333 5.58333C19.3333 6.08933 18.9227 6.5 18.4167 6.5C17.9107 6.5 17.5 6.08933 17.5 5.58333C17.5 5.07733 17.9107 4.66667 18.4167 4.66667ZM12 6.5C15.0333 6.5 17.5 8.96675 17.5 12C17.5 15.0333 15.0333 17.5 12 17.5C8.96675 17.5 6.5 15.0333 6.5 12C6.5 8.96675 8.96675 6.5 12 6.5ZM12 8.33333C11.0275 8.33333 10.0949 8.71964 9.40728 9.40728C8.71964 10.0949 8.33333 11.0275 8.33333 12C8.33333 12.9725 8.71964 13.9051 9.40728 14.5927C10.0949 15.2804 11.0275 15.6667 12 15.6667C12.9725 15.6667 13.9051 15.2804 14.5927 14.5927C15.2804 13.9051 15.6667 12.9725 15.6667 12C15.6667 11.0275 15.2804 10.0949 14.5927 9.40728C13.9051 8.71964 12.9725 8.33333 12 8.33333V8.33333Z" fill="#263238"/>
</svg>
