<svg width="25" height="24" viewBox="0 0 25 24" fill="none" xmlns="http://www.w3.org/2000/svg">
    <mask id="lkzcw727aa" fill="#fff">
        <path fill-rule="evenodd" clip-rule="evenodd" d="M15.68 1H7a2.25 2.25 0 0 0-2.25 2.25v17.5A2.25 2.25 0 0 0 7 23h11.5a2.25 2.25 0 0 0 2.25-2.25V5.988L15.68 1z"/>
    </mask>
    <path d="m15.68 1 1.052-1.07-.438-.43h-.614V1zm5.07 4.988h1.5v-.629l-.448-.44-1.052 1.069zM7 2.5h8.68v-3H7v3zm-.75.75A.75.75 0 0 1 7 2.5v-3a3.75 3.75 0 0 0-3.75 3.75h3zm0 17.5V3.25h-3v17.5h3zm.75.75a.75.75 0 0 1-.75-.75h-3A3.75 3.75 0 0 0 7 24.5v-3zm11.5 0H7v3h11.5v-3zm.75-.75a.75.75 0 0 1-.75.75v3a3.75 3.75 0 0 0 3.75-3.75h-3zm0-14.762V20.75h3V5.988h-3zm2.552-1.07-5.07-4.987-2.104 2.138 5.07 4.988 2.104-2.139z" fill="#1F74DB" mask="url(#lkzcw727aa)"/>
    <path d="M15 1.5v5.25h5.25" stroke="#1F74DB" stroke-width="1.5"/>
    <path d="M8.982 13.718H7.849v-.804h1.133a.842.842 0 0 0 .427-.096.589.589 0 0 0 .241-.275 1.116 1.116 0 0 0 0-.81.675.675 0 0 0-.24-.31.723.723 0 0 0-.428-.116h-.816V15.5H7.25v-5h1.732c.348 0 .646.071.894.213.25.14.442.333.574.58.133.248.199.53.199.849 0 .322-.066.602-.199.837a1.343 1.343 0 0 1-.574.546c-.248.129-.546.193-.894.193zM12.646 15.5h-.968l.006-.804h.962c.24 0 .443-.06.608-.182.165-.123.289-.303.373-.539.085-.236.128-.52.128-.855v-.244c0-.256-.025-.481-.074-.676a1.42 1.42 0 0 0-.21-.491.902.902 0 0 0-.345-.299 1.031 1.031 0 0 0-.47-.103h-.996V10.5h.995c.298 0 .57.057.816.172.248.112.463.273.644.484.181.21.32.462.418.755.1.291.15.615.15.972v.237c0 .355-.05.679-.15.972a2.221 2.221 0 0 1-.418.755c-.18.209-.394.37-.644.485a1.98 1.98 0 0 1-.825.168zm-.449-5v5h-.916v-5h.916zM16.265 10.5v5h-.916v-5h.916zm1.771 2.136v.804h-2.021v-.804h2.021zm.214-2.136v.807h-2.235V10.5h2.235z" fill="#1F74DB"/>
</svg>
