<svg width="64" height="64" viewBox="0 0 64 64" fill="none" xmlns="http://www.w3.org/2000/svg">
    <circle cx="24" cy="24" r="22" stroke="#2B3D65" stroke-width="4"/>
    <path d="M40.172 40.172a4 4 0 0 1 5.656 0L62.8 57.142a4 4 0 0 1-5.657 5.657l-16.97-16.97a4 4 0 0 1 0-5.657z" fill="#2B3D65"/>
    <path d="M32 18.877 24.822 12h-1.255v9.14l-5.795-5.517L16 17.311l7.045 6.708L16 30.73l1.772 1.688 5.795-5.517V36h1.255L32 29.166l-5.405-5.147L32 18.877zm-5.922-2.264 2.377 2.264-2.377 2.264v-4.528zm2.377 12.553-2.377 2.264v-4.528l2.377 2.264z" fill="#1F74DB"/>
</svg>
