<svg width="48" height="48" viewBox="0 0 48 48" fill="none" xmlns="http://www.w3.org/2000/svg">
    <path d="m42.711 19.258-.044-.024c-.561-.331-.815-.88-.579-1.236l4.342-5.668c.237-.339.745-.436 1.14-.201l.026.016c.395.226.518.694.29 1.033l-3.71 6.04c-.246.355-.895.38-1.456.048M42.711 32.758l-.044-.024c-.561-.331-.815-.88-.579-1.236l4.342-5.668c.237-.339.745-.436 1.14-.201l.026.016c.395.226.518.694.29 1.033l-3.71 6.04c-.246.355-.895.38-1.456.048" fill="#0F396B"/>
    <rect x="1" y="10" width="3" height="28" rx="1.5" fill="#0F396B"/>
    <rect x="41" y="10" width="3" height="28" rx="1.5" fill="#0F396B"/>
    <rect y="18" width="3" height="12" rx=".75" fill="#0F396B"/>
    <rect x="16.5" y="21" width="12" height="6" rx="1.125" stroke="#0F396B" stroke-width="2"/>
    <path stroke="#0F396B" stroke-width="3" d="M2.5 13.5h40v21h-40z"/>
</svg>
