<svg width="48" height="48" viewBox="0 0 48 48" fill="none" xmlns="http://www.w3.org/2000/svg">
    <path d="M24 8.071c7.292 0 12.269.963 13.14 1.253.071.062.194.238.235.342l3.39 8.885.133.352.246.28c1.167 1.315 2.611 3.065 2.908 3.593.215.373.318 1.14.318 1.543l.082 8.274c0 .352-.134.683-.38.942a1.32 1.32 0 0 1-.931.394H4.859c-.348 0-.686-.135-.932-.394a1.34 1.34 0 0 1-.379-.942l.082-8.284c0-.394.113-1.15.318-1.533.297-.528 1.74-2.268 2.908-3.593l.246-.28.133-.352 3.38-8.854c.051-.135.174-.31.246-.373.88-.3 5.857-1.253 13.139-1.253M24 6c-7.67 0-12.996 1.046-13.918 1.408C9.161 7.771 8.72 8.92 8.72 8.92l-3.39 8.885s-2.58 2.91-3.164 3.956c-.584 1.046-.584 2.537-.584 2.537L1.5 32.572C1.48 34.457 2.995 36 4.86 36h38.28c1.865 0 3.38-1.543 3.36-3.428l-.082-8.274s0-1.491-.584-2.537c-.584-1.046-3.164-3.956-3.164-3.956L39.28 8.92s-.44-1.15-1.362-1.512C36.996 7.046 31.67 6 24 6z" fill="#0F396B"/>
    <path d="M24 8.394c7.17 0 12.064.94 12.92 1.222.07.06.192.232.232.333l3.333 8.663.131.343.242.273c1.148 1.282 2.568 2.989 2.86 3.504.211.363.312 1.11.312 1.504l.08 8.067c0 .344-.13.667-.372.919a1.303 1.303 0 0 1-.916.384H5.178c-.342 0-.674-.132-.916-.384a1.3 1.3 0 0 1-.373-.919l.08-8.077c0-.384.112-1.12.313-1.494.292-.515 1.712-2.212 2.86-3.504l.242-.273.13-.343 3.324-8.632a1.14 1.14 0 0 1 .242-.364c.866-.293 5.76-1.222 12.92-1.222m0-2.019c-7.543 0-12.78 1.02-13.686 1.373-.906.354-1.34 1.474-1.34 1.474l-3.332 8.663s-2.538 2.837-3.112 3.857c-.574 1.02-.574 2.474-.574 2.474l-.08 8.067a3.31 3.31 0 0 0 3.302 3.342h37.644a3.31 3.31 0 0 0 3.303-3.342l-.08-8.067s0-1.454-.575-2.474c-.574-1.02-3.111-3.857-3.111-3.857l-3.334-8.663s-.433-1.12-1.34-1.474C36.78 7.395 31.544 6.375 24 6.375z" fill="#0F396B"/>
    <path d="M43.548 15.054s.42-.043.97-.043V15c.767 0 1.803.098 2.326.554.887.783 1.242 1.837 1.139 2.718-.13 1.163-1.046 1.228-1.046 1.228h-4.883s-.121-2 0-3.141c.121-1.142 1.494-1.305 1.494-1.305zM4.452 15.054s-.42-.043-.97-.043V15c-.766 0-1.803.098-2.326.554-.887.783-1.242 1.837-1.139 2.718.13 1.163 1.046 1.228 1.046 1.228h4.883s.121-2 0-3.141c-.121-1.142-1.494-1.305-1.494-1.305z" fill="#0F396B"/>
    <path fill="#0F396B" d="M6 17.25h36v2.25H6z"/>
    <path fill-rule="evenodd" clip-rule="evenodd" d="M44.25 34.072v5.678h-6V34.5H36v6a1.5 1.5 0 0 0 1.5 1.5H45a1.5 1.5 0 0 0 1.5-1.5V33c0-.4-.156-.762-.41-1.03l-1.84 2.102zM3.75 34.072v5.678h6V34.5H12v6a1.5 1.5 0 0 1-1.5 1.5H3a1.5 1.5 0 0 1-1.5-1.5V33c0-.4.156-.762.41-1.03l1.84 2.102z" fill="#0F396B"/>
    <path d="M41.113 25.99c.808-.674.332-1.99-.72-1.99h-6.631c-.46 0-.874.28-1.045.707l-.6 1.5a1.125 1.125 0 0 0 1.045 1.543h5.43c.264 0 .519-.092.72-.26l1.8-1.5zM6.887 25.99c-.808-.674-.332-1.99.72-1.99h6.631c.46 0 .874.28 1.045.707l.6 1.5a1.125 1.125 0 0 1-1.045 1.543h-5.43c-.264 0-.519-.092-.72-.26l-1.8-1.5z" fill="#0F396B"/>
</svg>
