<svg width="64" height="64" viewBox="0 0 64 64" fill="none" xmlns="http://www.w3.org/2000/svg">
    <circle cx="24" cy="24" r="22" stroke="#2B3D65" stroke-width="4"/>
    <path d="M40.172 40.172a4 4 0 0 1 5.656 0L62.8 57.142a4 4 0 0 1-5.657 5.657l-16.97-16.97a4 4 0 0 1 0-5.657z" fill="#2B3D65"/>
    <path fill-rule="evenodd" clip-rule="evenodd" d="M35.404 20.483a.488.488 0 0 1 .429.3 2.206 2.206 0 0 1-.001 1.686.488.488 0 0 1-.429.299h-2.199l.033.089c.456.148.768.584.772 1.079v7.517a.543.543 0 0 1-.54.547h-2.72a.543.543 0 0 1-.541-.547v-2.666H17.793v2.666a.543.543 0 0 1-.541.547h-2.725a.544.544 0 0 1-.537-.55v-7.518c.004-.495.316-.93.771-1.079l.034-.089h-2.2a.488.488 0 0 1-.428-.298 2.207 2.207 0 0 1 0-1.684.488.488 0 0 1 .428-.299h2.195a.488.488 0 0 1 .428.3c.051.146.093.296.125.449l1.463-4.101A1.699 1.699 0 0 1 18.398 16h11.204a1.699 1.699 0 0 1 1.591 1.13l1.465 4.101c.032-.152.074-.302.125-.449a.488.488 0 0 1 .429-.299h2.192zM19.016 18a.5.5 0 0 0-.46.306l-1.264 3a.5.5 0 0 0 .461.694h12.494a.5.5 0 0 0 .46-.694l-1.262-3a.5.5 0 0 0-.461-.306h-9.968zM16 25a1 1 0 0 1 1-1h2a1 1 0 1 1 0 2h-2a1 1 0 0 1-1-1zm13-1a1 1 0 1 0 0 2h2a1 1 0 1 0 0-2h-2z" fill="#2B3D65"/>
</svg>
