<svg width="48" height="48" viewBox="0 0 48 48" fill="none" xmlns="http://www.w3.org/2000/svg">
    <rect x="37.5" y="11" width="8" height="1.5" rx=".75" transform="rotate(90 37.5 11)" fill="#2B3D65"/>
    <path fill-rule="evenodd" clip-rule="evenodd" d="M14 0a3 3 0 0 0-3 3v42a3 3 0 0 0 3 3h20a3 3 0 0 0 3-3V3a3 3 0 0 0-3-3H14zm9 44a1 1 0 1 0 0 2h2a1 1 0 1 0 0-2h-2zM22 2.5a.5.5 0 0 1 .5-.5h3a.5.5 0 0 1 0 1h-3a.5.5 0 0 1-.5-.5zM14 4a1 1 0 0 0-1 1v37a1 1 0 0 0 1 1h20a1 1 0 0 0 1-1V5a1 1 0 0 0-1-1H14z" fill="#2B3D65"/>
</svg>
