<svg xmlns="http://www.w3.org/2000/svg" width="32" height="32" viewBox="0 0 32 32">
    <g fill="none" fill-rule="evenodd">
        <g>
            <g>
                <g transform="translate(-220 -1590) translate(0 1581) translate(220 9)">
                    <path stroke="#111" stroke-linecap="round" stroke-linejoin="round" d="M17.8 12.1c0 1.491 1.209 3.3 2.7 3.3s2.7-1.809 2.7-3.3c0-1.491-1.209-2.7-2.7-2.7s-2.7 1.209-2.7 2.7zM20.8 21.4H25v-1.297c0-.734-.441-1.398-1.123-1.669-.78-.31-1.937-.634-3.377-.634-1.44 0-2.597.323-3.377.634-.322.129-.588.342-.782.611"/>
                    <path stroke="#111" stroke-linecap="round" stroke-linejoin="round" d="M18.4 23.2H7v-1.689c0-.916.517-1.754 1.34-2.155.96-.468 2.426-.956 4.36-.956 1.934 0 3.4.488 4.36.956.823.401 1.34 1.24 1.34 2.155V23.2zM16 12.1c0 1.823-1.477 3.9-3.3 3.9-1.823 0-3.3-2.077-3.3-3.9s1.477-3.3 3.3-3.3c1.823 0 3.3 1.477 3.3 3.3z"/>
                </g>
            </g>
        </g>
    </g>
</svg>
