<svg xmlns="http://www.w3.org/2000/svg" width="32" height="32" viewBox="0 0 32 32">
    <g fill="none" fill-rule="evenodd">
        <g>
            <g>
                <g>
                    <path stroke="#2B6DCB" stroke-linecap="round" stroke-linejoin="round" d="M2 11.929c2.762-1.208 2.228.54 5 .893" transform="translate(-35 -1590) translate(0 1581) translate(35 9)"/>
                    <path stroke="#2B6DCB" stroke-linecap="round" stroke-linejoin="round" d="M2 19.147c2.762-1.208 2.228.54 5 .893" transform="translate(-35 -1590) translate(0 1581) translate(35 9) matrix(1 0 0 -1 0 38.767)"/>
                    <path stroke="#2B6DCB" stroke-linecap="round" stroke-linejoin="round" d="M25.24 11.929c2.763-1.208 2.229.54 5 .893" transform="translate(-35 -1590) translate(0 1581) translate(35 9) matrix(-1 0 0 1 55.481 0)"/>
                    <path stroke="#2B6DCB" stroke-linecap="round" stroke-linejoin="round" d="M25.24 19.147c2.763-1.208 2.229.54 5 .893" transform="translate(-35 -1590) translate(0 1581) translate(35 9) rotate(180 27.74 19.383)"/>
                    <path fill="#2B6DCB" stroke="#2B6DCB" stroke-linejoin="round" d="M5 9H27V23H5z" transform="translate(-35 -1590) translate(0 1581) translate(35 9)"/>
                    <path fill="#FFF" fill-rule="nonzero" d="M20.026 12.774h-7.94v3.61h7.94v-3.61zm-.723.602v2.406h-6.496v-2.406h6.496zM23.917 18.662L23.917 19.383 7.917 19.383 7.917 18.662zM24 12.887L24 13.609 21 13.609 21 12.887zM24 15.774L24 16.496 21 16.496 21 15.774zM11 12.887L11 13.609 8 13.609 8 12.887zM11 15.774L11 16.496 8 16.496 8 15.774z" transform="translate(-35 -1590) translate(0 1581) translate(35 9)"/>
                </g>
            </g>
        </g>
    </g>
</svg>
