<svg xmlns="http://www.w3.org/2000/svg" width="40" height="40" viewBox="0 0 40 40">
    <g fill="none" fill-rule="evenodd">
        <g>
            <g>
                <g transform="translate(-1070 -13) translate(1070 11) translate(0 2)">
                    <g stroke-linecap="round" stroke-linejoin="round">
                        <path stroke="#FFF" stroke-width="2" d="M17 10V7c0-3.866-3.134-7-7-7S3 3.134 3 7v3c0 3.3-3 4.1-3 6 0 1.7 3.9 3 10 3s10-1.3 10-3c0-1.9-3-2.7-3-6z" transform="translate(10 9)"/>
                        <path fill="#FFF" fill-rule="nonzero" d="M10 21c-1.011 0-1.961-.034-2.855-.1.391 1.248 1.547 2.097 2.855 2.097s2.464-.85 2.855-2.097c-.894.066-1.844.1-2.855.1z" transform="translate(10 9)"/>
                    </g>
                </g>
            </g>
        </g>
    </g>
</svg>
