<svg width="48" height="48" viewBox="0 0 48 48" fill="none" xmlns="http://www.w3.org/2000/svg">
    <path d="m24.008 29.485 13.303-7.679v-5.394L24.008 24.1l-6.062-3.505v5.394l6.062 3.497z" fill="#1F74DB"/>
    <path d="m39.373 33.559-14.78 8.528a1.177 1.177 0 0 1-1.187 0l-14.78-8.528a1.181 1.181 0 0 1-.593-1.031V15.464c0-.42.223-.817.594-1.031l14.78-8.528a1.177 1.177 0 0 1 1.187 0l14.78 8.528c.37.214.593.602.593 1.03v17.065c0 .429-.223.825-.594 1.03zM48 24C48 10.746 37.254 0 24 0S0 10.746 0 24s10.746 24 24 24 24-10.746 24-24z" fill="#1F74DB"/>
</svg>
