<svg width="65" height="64" viewBox="0 0 65 64" fill="none" xmlns="http://www.w3.org/2000/svg">
    <path d="M51.167 24.8c0-4.986-1.967-9.768-5.468-13.294A18.6 18.6 0 0 0 32.5 6a18.6 18.6 0 0 0-13.2 5.506A18.868 18.868 0 0 0 13.834 24.8C13.833 46.733 4.5 53 4.5 53h56s-9.333-6.267-9.333-28.2zM39.5 53c-.711 1.52-1.732 2.783-2.96 3.66-1.23.878-2.622 1.34-4.04 1.34-1.418 0-2.81-.462-4.04-1.34-1.228-.877-2.249-2.14-2.96-3.66" stroke="#0F396B" stroke-width="4" stroke-linecap="round" stroke-linejoin="round"/>
    <path d="M21.432 23.312c.545-2.208 2.758-7.076 7.247-8.884" stroke="#0F396B" stroke-width="4" stroke-linecap="round"/>
    <circle cx="48.5" cy="12" r="8" fill="#1F74DB"/>
</svg>
