<svg width="48" height="48" viewBox="0 0 48 48" fill="none" xmlns="http://www.w3.org/2000/svg">
    <g clip-path="url(#w9krkdv26a)">
        <circle cx="24" cy="24" r="22.5" stroke="#0F396B" stroke-width="3"/>
        <path d="M31 20.3c0-1.87-.738-3.663-2.05-4.985A6.975 6.975 0 0 0 24 13.25a6.975 6.975 0 0 0-4.95 2.065A7.075 7.075 0 0 0 17 20.3c0 8.225-3.5 10.575-3.5 10.575h21S31 28.525 31 20.3z" stroke="#1F74DB" stroke-width="2.5" stroke-linecap="round" stroke-linejoin="round"/>
        <path d="M27 32a3.786 3.786 0 0 1-1.269 1.464A3.113 3.113 0 0 1 24 34a3.113 3.113 0 0 1-1.731-.536A3.786 3.786 0 0 1 21 32" stroke="#1F74DB" stroke-width="2" stroke-linecap="round" stroke-linejoin="round"/>
        <path d="M21 20.832c.205-.828 1.035-2.654 2.718-3.332" stroke="#1F74DB" stroke-width="2" stroke-linecap="round"/>
    </g>
    <defs>
        <clipPath id="w9krkdv26a">
            <path fill="#fff" d="M0 0h48v48H0z"/>
        </clipPath>
    </defs>
</svg>
