<svg width="48" height="48" viewBox="0 0 48 48" fill="none" xmlns="http://www.w3.org/2000/svg">
    <g clip-path="url(#bz5m87vqma)">
        <circle cx="24" cy="24" r="22.5" stroke="#0F396B" stroke-width="3"/>
        <path d="m38.199 20.68-.032-.016c-.403-.232-.586-.616-.416-.865l3.12-3.968c.17-.237.536-.305.82-.141l.019.011c.284.159.372.486.208.724l-2.667 4.227c-.176.25-.643.266-1.046.034M38.199 30.13l-.032-.016c-.403-.232-.586-.617-.416-.865l3.12-3.968c.17-.237.536-.305.82-.141l.019.011c.284.158.372.486.208.724l-2.667 4.227c-.176.249-.643.266-1.046.034" fill="#0F396B"/>
        <rect x="9" y="13.5" width="2" height="21" rx="1" fill="#0F396B"/>
        <rect x="9" y="13.5" width="2" height="21" rx="1" fill="#0F396B"/>
        <rect x="37" y="13.5" width="2" height="21" rx="1" fill="#0F396B"/>
        <rect x="8" y="20" width="2" height="8" rx=".525" fill="#0F396B"/>
        <rect x="19.5" y="21.75" width="8.625" height="4.5" rx=".5" stroke="#0F396B" stroke-width="1.25"/>
        <path stroke="#0F396B" stroke-width="2" d="M10 16h28v16H10z"/>
    </g>
    <defs>
        <clipPath id="bz5m87vqma">
            <path fill="#fff" d="M0 0h48v48H0z"/>
        </clipPath>
    </defs>
</svg>
