<svg width="48" height="48" viewBox="0 0 48 48" fill="none" xmlns="http://www.w3.org/2000/svg">
    <g clip-path="url(#kxuxxy7pua)">
        <circle cx="24" cy="24" r="22.5" stroke="#0F396B" stroke-width="3"/>
        <rect x="19.5" y="10.5" width="9" height="11" rx="4.5" stroke="#0F396B" stroke-width="3"/>
        <path fill-rule="evenodd" clip-rule="evenodd" d="M31.093 25.865A8.656 8.656 0 0 0 27.309 25h-6.618C15.89 25 12 28.891 12 33.69v.572c0 .96.778 1.738 1.738 1.738h14.086l.398-2.325a.25.25 0 0 0-.071-.222L27.686 33H15.04c.341-2.817 2.74-5 5.65-5h6.618c.463 0 .913.055 1.344.16l1.278-.186a.25.25 0 0 0 .188-.137l.974-1.972z" fill="#0F396B"/>
        <path d="M32.776 26.454a.25.25 0 0 1 .448 0l1.481 3.001a.25.25 0 0 0 .188.137l3.312.481a.25.25 0 0 1 .139.427l-2.397 2.335a.25.25 0 0 0-.072.222l.566 3.298a.25.25 0 0 1-.363.263l-2.962-1.557a.25.25 0 0 0-.232 0l-2.962 1.557a.25.25 0 0 1-.363-.263l.566-3.298a.25.25 0 0 0-.072-.222L27.656 30.5a.25.25 0 0 1 .139-.427l3.312-.481a.25.25 0 0 0 .188-.137l1.48-3z" fill="#1F74DB"/>
    </g>
    <defs>
        <clipPath id="kxuxxy7pua">
            <path fill="#fff" d="M0 0h48v48H0z"/>
        </clipPath>
    </defs>
</svg>
