<svg width="65" height="64" viewBox="0 0 65 64" fill="none" xmlns="http://www.w3.org/2000/svg">
    <path fill-rule="evenodd" clip-rule="evenodd" d="M41.5 24v-8a9 9 0 1 0-18 0v8h-5v-8c0-7.732 6.268-14 14-14s14 6.268 14 14v8h-5z" fill="#0F396B"/>
    <path d="M44.5 38v4h-20v-2a2 2 0 0 1 2-2h18z" fill="#0F396B"/>
    <circle cx="50.5" cy="40" r="6" stroke="#0F396B" stroke-width="4"/>
    <path fill-rule="evenodd" clip-rule="evenodd" d="M18.5 28h28a2 2 0 0 1 2 2v.2a10.052 10.052 0 0 1 4 0V30a6 6 0 0 0-6-6h-28a6 6 0 0 0-6 6v12c0 11.046 8.954 20 20 20 8.203 0 15.253-4.939 18.338-12.006a9.971 9.971 0 0 1-4.084-.72C44.106 54.455 38.717 58 32.5 58c-8.837 0-16-7.163-16-16V30a2 2 0 0 1 2-2z" fill="#1F74DB"/>
    <path d="M24.5 42h4v2a2 2 0 1 1-4 0v-2zM30.5 42h4v2a2 2 0 1 1-4 0v-2z" fill="#0F396B"/>
</svg>
