<svg width="32" height="32" viewBox="0 0 32 32" fill="none" xmlns="http://www.w3.org/2000/svg">
    <path fill="#0F396B" d="M3 11h20.571v1.5H3zM3 8h20.571v1.5H3z"/>
    <path d="M22.5 24.5H9.253" stroke="#0F396B" stroke-width="1.5" stroke-miterlimit="10" stroke-linecap="round"/>
    <path d="M14 15v4" stroke="#0F396B" stroke-width="1.5" stroke-miterlimit="10"/>
    <circle cx="6.923" cy="24.077" r="2.173" stroke="#0F396B" stroke-width="1.5"/>
    <circle cx="25" cy="24" r="2.25" stroke="#0F396B" stroke-width="1.5"/>
    <path d="M8 17.5s1.257 1.08 5.59 1.08h9.33s3.34.182 5.266.576c1.691.344 2.581 1.322 2.779 1.557a.158.158 0 0 1 .034.117l-.17 2.591c-.015.227-.097.45-.24.62-.097.11-.213.212-.336.228-.302.045-2.732.231-2.732.231" stroke="#0F396B" stroke-width="1.5" stroke-miterlimit="10" stroke-linecap="round"/>
    <path fill-rule="evenodd" clip-rule="evenodd" d="M3.5 6.5V23h-.065v4H2V6a1 1 0 0 1 1-1h20a1 1 0 0 1 1 1v13h-1.5V6.5h-19z" fill="#0F396B"/>
    <path fill-rule="evenodd" clip-rule="evenodd" d="M10.542 15.851a33.876 33.876 0 0 1 3.645-.085 27.122 27.122 0 0 1 1.347.075l.07.006.017.002h.003l.02.002.017.001.01.001.07.007c.067.008.174.023.32.05.294.056.744.162 1.337.364 1.186.405 2.949 1.196 5.175 2.739a.75.75 0 1 0 .854-1.233c-2.334-1.618-4.22-2.473-5.544-2.925-.661-.226-1.18-.35-1.543-.419a6.223 6.223 0 0 0-.545-.078l-.033-.003h-.014c-.02-.003-.047-.005-.083-.008a28.785 28.785 0 0 0-1.432-.08 35.38 35.38 0 0 0-3.807.088c-1.632.128-3.194.76-4.322 1.335a16.658 16.658 0 0 0-1.719 1.012L3 16.782v1.503l1.685-.098.221-.013.179-.13v-.001l.004-.003.02-.014.087-.06a15.136 15.136 0 0 1 1.59-.939c1.049-.536 2.408-1.07 3.756-1.176zM3 22.699v1.65c.362.15.725.272 1.083.373a.75.75 0 0 0 .406-1.444A7.97 7.97 0 0 1 3 22.698z" fill="#0F396B"/>
</svg>
