<svg width="32" height="32" viewBox="0 0 32 32" fill="none" xmlns="http://www.w3.org/2000/svg">
    <path fill="#0F396B" d="M8 11h20.571v1.5H8zM8 8h20.571v1.5H8z"/>
    <path d="M5.286 24c-.988-.278-1.996-.73-2.89-1.452A1.054 1.054 0 0 1 2 21.731V20.72l.391-.493-.044-2.211a.394.394 0 0 1 .363-.407l2.931-.17s2.863-2.102 5.843-2.335c2.98-.232 5.218 0 5.218 0s2.737.133 7.298 3.293M23.5 24.5l-13.329-.007" stroke="#0F396B" stroke-width="1.5" stroke-miterlimit="10" stroke-linecap="round"/>
    <path d="M15 15v4" stroke="#0F396B" stroke-width="1.5" stroke-miterlimit="10"/>
    <circle cx="7.923" cy="24.077" r="2.173" stroke="#0F396B" stroke-width="1.5"/>
    <circle cx="26" cy="24" r="2.25" stroke="#0F396B" stroke-width="1.5"/>
    <path fill-rule="evenodd" clip-rule="evenodd" d="M9.5 16V6.5h19V23h.065v4H30V6a1 1 0 0 0-1-1H9a1 1 0 0 0-1 1v10h1.5z" fill="#0F396B"/>
    <path fill-rule="evenodd" clip-rule="evenodd" d="M29 18.357c-.96-.173-2.14-.299-3.104-.384a69.232 69.232 0 0 0-1.784-.133l-.111-.007-.03-.001H23.962l-.001-.001-.041.749.04-.749-.02-.001h-9.35c-2.105 0-3.425-.262-4.194-.505a4.372 4.372 0 0 1-.773-.315 1.574 1.574 0 0 1-.148-.09.75.75 0 0 0-.964 1.149L9 17.5c-.489.569-.488.57-.488.57h.001l.002.002.005.004.01.009a1.122 1.122 0 0 0 .107.079c.064.044.153.1.268.163.23.126.568.28 1.04.428.942.297 2.417.575 4.646.575h9.324l.107.007.399.026c.34.023.812.058 1.344.104 1.058.094 2.319.232 3.235.416v-1.526zm0 5.353-.153.012-.28.022-.077.006-.02.002h-.006l.057.748-.058-.748a.75.75 0 1 0 .115 1.496l-.057-.748.057.748h.007l.02-.002.078-.006.28-.022.037-.003V23.71z" fill="#0F396B"/>
</svg>
