<svg width="24" height="24" viewBox="0 0 24 24" fill="none" xmlns="http://www.w3.org/2000/svg">
<rect x="9.75" y="7.75" width="4.5" height="5.25" rx="2.25" stroke="#0F396B" stroke-width="1.5"/>
<mask id="path-2-inside-1_498_1358" fill="white">
<path d="M6 19.1667C6 16.8655 7.86548 15 10.1667 15H13.8333C16.1345 15 18 16.8655 18 19.1667V19.1667C18 19.6269 17.6269 20 17.1667 20H6.83333C6.3731 20 6 19.6269 6 19.1667V19.1667Z"/>
</mask>
<path d="M6 19.1667C6 16.8655 7.86548 15 10.1667 15H13.8333C16.1345 15 18 16.8655 18 19.1667V19.1667C18 19.6269 17.6269 20 17.1667 20H6.83333C6.3731 20 6 19.6269 6 19.1667V19.1667Z" stroke="#0F396B" stroke-width="3" mask="url(#path-2-inside-1_498_1358)"/>
<path fill-rule="evenodd" clip-rule="evenodd" d="M10.002 2C10.0007 2.03013 10 2.06044 10 2.09091V3.5H5.25C4.83579 3.5 4.5 3.83579 4.5 4.25V20.75C4.5 21.1642 4.83579 21.5 5.25 21.5H18.75C19.1642 21.5 19.5 21.1642 19.5 20.75V4.25C19.5 3.83579 19.1642 3.5 18.75 3.5H14V2.09091C14 2.06044 13.9993 2.03013 13.998 2H18.75C19.9926 2 21 3.00736 21 4.25V20.75C21 21.9926 19.9926 23 18.75 23H5.25C4.00736 23 3 21.9926 3 20.75V4.25C3 3.00736 4.00736 2 5.25 2H10.002Z" fill="#0F396B"/>
<rect x="11" width="2" height="5" rx="1" fill="#0F396B"/>
</svg>
