<svg width="24" height="24" viewBox="0 0 24 24" fill="none" xmlns="http://www.w3.org/2000/svg">
<rect x="7.5" y="1.75" width="9" height="10" rx="4.46455" stroke="#0F396B" stroke-width="1.5"/>
<path fill-rule="evenodd" clip-rule="evenodd" d="M14.5 14C14.5852 14 14.6701 14.0014 14.7546 14.0042C14.5897 14.4722 14.5 14.9756 14.5 15.5H9.5C6.18629 15.5 3.5 18.1863 3.5 21.5H11V23H3.5C2.67157 23 2 22.3284 2 21.5C2 17.3579 5.35786 14 9.5 14H14.5Z" fill="#0F396B"/>
<path fill-rule="evenodd" clip-rule="evenodd" d="M20.5985 14.4182C21.143 14.9666 21.143 15.8556 20.5985 16.404C20.054 16.9523 19.1711 16.9523 18.6266 16.404C18.0821 15.8556 18.0821 14.9666 18.6266 14.4182C19.1711 13.8699 20.054 13.8699 20.5985 14.4182ZM22.0078 12.9991C23.3306 14.3312 23.3306 16.491 22.0078 17.8231C20.8917 18.947 19.1906 19.1227 17.8916 18.3502L17.2173 19.0292L17.8161 19.6322C18.1468 19.9652 18.1468 20.5051 17.8161 20.8382C17.4854 21.1712 16.9492 21.1712 16.6185 20.8382L16.0197 20.2352L14.8222 21.4411L15.4211 22.0442C15.7518 22.3772 15.7518 22.9172 15.4211 23.2502C15.0903 23.5833 14.5542 23.5833 14.2234 23.2502L13.6246 22.6472L13.3689 22.3896L13.1316 22.1507C12.7424 21.7588 12.7424 21.1235 13.1316 20.7316L16.694 17.1442C15.9268 15.8361 16.1012 14.123 17.2173 12.9991C18.5402 11.667 20.6849 11.667 22.0078 12.9991Z" fill="#0F396B"/>
</svg>
