<svg width="24" height="24" viewBox="0 0 24 24" fill="none" xmlns="http://www.w3.org/2000/svg">
<path d="M12.7279 1V4.46028H10.9688V1H12.7279ZM12.5109 19.8985V23H10.7632V19.8985H12.5109ZM14.2357 16.1604C14.2357 15.713 14.1443 15.3233 13.9616 14.9916C13.7864 14.6521 13.4971 14.3474 13.0935 14.0773C12.6899 13.7996 12.1492 13.5411 11.4714 13.3019C10.4967 12.9548 9.64382 12.5651 8.91277 12.1331C8.18934 11.6933 7.62582 11.1533 7.22222 10.5129C6.82624 9.86481 6.62825 9.05857 6.62825 8.09416C6.62825 7.14519 6.84147 6.32351 7.26791 5.62914C7.70197 4.93477 8.30357 4.39856 9.07269 4.02052C9.84181 3.64247 10.7404 3.45345 11.7684 3.45345C12.5604 3.45345 13.2724 3.57303 13.9045 3.8122C14.5441 4.05138 15.0886 4.40242 15.5379 4.86533C15.9872 5.32825 16.3299 5.89918 16.5659 6.57812C16.8096 7.24934 16.9315 8.02087 16.9315 8.89269H14.19C14.19 8.39891 14.1329 7.95914 14.0187 7.57338C13.9121 7.17991 13.7522 6.84815 13.5389 6.57812C13.3257 6.30037 13.0668 6.0882 12.7622 5.94161C12.4652 5.79502 12.1263 5.72173 11.7456 5.72173C11.2049 5.72173 10.7594 5.82588 10.4091 6.03419C10.0588 6.23479 9.79993 6.51254 9.6324 6.86744C9.47248 7.22234 9.39252 7.62739 9.39252 8.08259C9.39252 8.52236 9.47629 8.90812 9.64382 9.23987C9.81135 9.57163 10.0969 9.87252 10.5005 10.1426C10.9117 10.4049 11.4753 10.6711 12.1911 10.9411C13.1734 11.296 14.0225 11.6933 14.7383 12.1331C15.4618 12.5651 16.0177 13.1014 16.406 13.7417C16.802 14.3744 17 15.1729 17 16.1373C17 17.1326 16.7715 17.9774 16.3146 18.6718C15.8654 19.3661 15.2333 19.8946 14.4185 20.2572C13.6113 20.6121 12.6708 20.7896 11.5971 20.7896C10.9193 20.7896 10.2454 20.7009 9.57529 20.5234C8.91277 20.3382 8.31118 20.0373 7.77051 19.6207C7.22984 19.2041 6.79958 18.6525 6.47975 17.9658C6.15992 17.2714 6 16.4228 6 15.4198H8.76428C8.76428 16.0216 8.84424 16.5231 9.00415 16.9243C9.16407 17.3254 9.3811 17.6418 9.65524 17.8732C9.92939 18.1047 10.234 18.2706 10.5691 18.3709C10.9117 18.4712 11.2544 18.5213 11.5971 18.5213C12.1682 18.5213 12.648 18.4249 13.0363 18.232C13.4323 18.0314 13.7293 17.7536 13.9273 17.3987C14.1329 17.0361 14.2357 16.6234 14.2357 16.1604Z" fill="#0F396B"/>
</svg>
