<svg width="24" height="24" viewBox="0 0 24 24" fill="none" xmlns="http://www.w3.org/2000/svg">
<g clip-path="url(#clip0_498_1383)">
<path d="M14.25 1.5V6.75H19.5" stroke="#0F396B" stroke-width="1.5"/>
<rect x="11" y="17" width="1.5" height="4" rx="0.75" transform="rotate(90 11 17)" fill="#0F396B"/>
<rect x="16" y="13" width="1.5" height="9" rx="0.75" transform="rotate(90 16 13)" fill="#0F396B"/>
<path d="M9.46559 4V5.0857H8.83401V4H9.46559ZM9.38866 10.01V11H8.75709V10.01H9.38866ZM9.83401 8.80284C9.83401 8.66299 9.80567 8.54399 9.74899 8.44585C9.69501 8.3477 9.60594 8.2606 9.48178 8.18454C9.36032 8.10848 9.19568 8.03488 8.98785 7.96372C8.63698 7.84104 8.32794 7.71101 8.06073 7.57361C7.79622 7.43375 7.58974 7.26078 7.4413 7.05468C7.29285 6.84613 7.21862 6.58237 7.21862 6.26341C7.21862 5.95917 7.29825 5.69541 7.45749 5.47213C7.61673 5.24886 7.83671 5.07711 8.11741 4.95689C8.40081 4.83421 8.73009 4.77287 9.10526 4.77287C9.39136 4.77287 9.65047 4.81213 9.88259 4.89064C10.1147 4.9667 10.3144 5.07957 10.4818 5.22923C10.6491 5.37645 10.7773 5.55678 10.8664 5.77024C10.9555 5.9837 11 6.22783 11 6.50263H9.83806C9.83806 6.35542 9.82051 6.22538 9.78543 6.11251C9.75034 5.99965 9.69906 5.90519 9.63158 5.82913C9.5668 5.75307 9.48853 5.69664 9.39676 5.65983C9.30499 5.62057 9.20378 5.60095 9.09312 5.60095C8.92848 5.60095 8.79352 5.63039 8.68826 5.68927C8.583 5.74816 8.50607 5.8279 8.45749 5.9285C8.41161 6.02664 8.38866 6.1395 8.38866 6.26709C8.38866 6.39222 8.41296 6.5014 8.46154 6.59464C8.51282 6.68787 8.60054 6.77375 8.7247 6.85226C8.84885 6.92832 9.01889 7.00683 9.23482 7.0878C9.5857 7.21048 9.89339 7.34297 10.1579 7.48528C10.4224 7.62758 10.6289 7.80179 10.7773 8.00789C10.9258 8.21399 11 8.47652 11 8.79548C11 9.11199 10.919 9.38188 10.7571 9.60515C10.5951 9.82597 10.3684 9.99527 10.0769 10.113C9.78543 10.2284 9.44804 10.286 9.06478 10.286C8.81646 10.286 8.5695 10.2566 8.32389 10.1977C8.07827 10.1363 7.8556 10.0382 7.65587 9.90326C7.45614 9.76831 7.2969 9.5892 7.17814 9.36593C7.05938 9.1402 7 8.86295 7 8.53417H8.16599C8.16599 8.71328 8.19163 8.86295 8.24292 8.98318C8.2942 9.10095 8.36167 9.19541 8.44534 9.26656C8.53171 9.33526 8.62888 9.38433 8.73684 9.41377C8.8448 9.44322 8.95412 9.45794 9.06478 9.45794C9.23752 9.45794 9.37922 9.42972 9.48988 9.37329C9.60324 9.31686 9.68826 9.23957 9.74494 9.14143C9.80432 9.04083 9.83401 8.92797 9.83401 8.80284Z" fill="#0F396B"/>
<path d="M14.3647 21.0044L20.4853 14.8839L22.4298 16.8284L16.3093 22.949L14.1217 23.192L14.3647 21.0044Z" stroke="#0F396B" stroke-width="1.25"/>
<path d="M14.0916 20.5058L14.7987 19.7987L17.5 22.5L16.7929 23.2071L14.0916 20.5058Z" fill="#0F396B"/>
<path fill-rule="evenodd" clip-rule="evenodd" d="M14.3161 2.5H6.25C5.83579 2.5 5.5 2.83579 5.5 3.25V20.75C5.5 21.1642 5.83579 21.5 6.25 21.5H11.9683L11.7595 23H6.25C5.00736 23 4 21.9926 4 20.75V3.25C4 2.00736 5.00736 1 6.25 1H14.9302L20 5.98755V12L18.5 13.5V6.61606L14.3161 2.5ZM20 19V18.6667L19.6667 19H20Z" fill="#0F396B"/>
</g>
<defs>
<clipPath id="clip0_498_1383">
<rect width="24" height="24" fill="white"/>
</clipPath>
</defs>
</svg>
