<svg width="32" height="48" viewBox="0 0 32 48" fill="none" xmlns="http://www.w3.org/2000/svg">
    <path d="M16.333 23.064c3.747 0 6.305.495 6.753.644a.61.61 0 0 1 .12.176l1.742 4.566.069.18.126.144c.6.676 1.342 1.576 1.495 1.847.11.192.163.585.163.793l.042 4.252a.678.678 0 0 1-.674.686H6.497a.656.656 0 0 1-.479-.202.688.688 0 0 1-.195-.484l.043-4.257c0-.203.057-.591.163-.788.152-.271.894-1.165 1.494-1.847l.127-.143.068-.181 1.737-4.55c.026-.07.09-.16.126-.192.453-.154 3.01-.644 6.752-.644m0-1.064c-3.941 0-6.678.538-7.152.724-.473.186-.7.777-.7.777L6.74 28.067s-1.326 1.495-1.626 2.032c-.3.538-.3 1.304-.3 1.304l-.042 4.252a1.737 1.737 0 0 0 1.726 1.762H26.17c.958 0 1.737-.793 1.727-1.762l-.042-4.252s0-.766-.3-1.303c-.3-.538-1.627-2.033-1.627-2.033L24.185 23.5s-.226-.591-.7-.777c-.473-.186-3.21-.724-7.152-.724z" fill="#90A4AE"/>
    <path d="M16.333 23.23c3.685 0 6.2.483 6.64.628.036.031.098.12.119.171l1.713 4.452.067.177.125.14c.59.659 1.32 1.536 1.47 1.8.108.187.16.571.16.773l.041 4.146a.677.677 0 0 1-.191.472.67.67 0 0 1-.471.197H6.66a.648.648 0 0 1-.47-.197.668.668 0 0 1-.192-.472l.041-4.15c0-.198.057-.577.16-.769.15-.264.88-1.136 1.47-1.8l.124-.14.068-.177 1.707-4.436a.584.584 0 0 1 .125-.187c.445-.15 2.96-.628 6.64-.628zm0-1.037c-3.876 0-6.567.524-7.033.705-.465.182-.688.758-.688.758L6.9 28.108S5.595 29.566 5.3 30.09c-.295.524-.295 1.27-.295 1.27l-.041 4.147a1.7 1.7 0 0 0 1.697 1.717h19.345a1.7 1.7 0 0 0 1.697-1.717l-.041-4.146s0-.747-.295-1.271c-.295-.524-1.6-1.982-1.6-1.982l-1.712-4.452s-.223-.576-.689-.758c-.465-.181-3.157-.705-7.033-.705z" fill="#90A4AE"/>
    <path d="M26.379 26.653s.216-.022.499-.022v-.006c.393 0 .926.05 1.194.285.456.402.639.944.586 1.396-.067.598-.538.631-.538.631h-2.509s-.062-1.027 0-1.614c.062-.586.768-.67.768-.67zM6.288 26.653s-.216-.022-.5-.022v-.006c-.393 0-.925.05-1.194.285-.456.402-.638.944-.585 1.396.067.598.537.631.537.631h2.51s.062-1.027 0-1.614c-.063-.586-.768-.67-.768-.67z" fill="#90A4AE"/>
    <path fill="#90A4AE" d="M7.083 27.781h18.5v1.156h-18.5z"/>
    <path fill-rule="evenodd" clip-rule="evenodd" d="M26.74 36.426v2.917h-3.084v-2.697H22.5v3.083c0 .426.345.77.77.77h3.855a.77.77 0 0 0 .77-.77v-3.854a.768.768 0 0 0-.21-.53l-.945 1.08zM5.927 36.426v2.917H9.01v-2.697h1.157v3.083a.77.77 0 0 1-.771.77H5.542a.77.77 0 0 1-.771-.77v-3.854c0-.205.08-.392.21-.53l.946 1.08z" fill="#90A4AE"/>
    <path d="M25.128 32.272a.578.578 0 0 0-.37-1.022H21.35a.578.578 0 0 0-.537.363l-.308.771a.578.578 0 0 0 .536.793h2.791a.578.578 0 0 0 .37-.134l.925-.77zM7.54 32.272a.578.578 0 0 1 .37-1.022h3.407c.236 0 .449.144.537.363l.308.771a.578.578 0 0 1-.537.793h-2.79a.578.578 0 0 1-.37-.134l-.926-.77z" fill="#90A4AE"/>
    <rect x="14" y="12.5" width="4" height="2" rx=".36" stroke="#90A4AE" stroke-width=".899"/>
    <mask id="664o0najla" fill="#fff">
        <rect x="8" y="9" width="16" height="9" rx="1"/>
    </mask>
    <rect x="8" y="9" width="16" height="9" rx="1" stroke="#90A4AE" stroke-width="2.5" mask="url(#664o0najla)"/>
    <path d="M8.5 13.5H3.924c-.922 0-2.768.524-2.768 2.62v12.447c0 .873.554 2.62 2.768 2.62H5.5" stroke="#90A4AE" stroke-width="1.156"/>
</svg>
