<svg width="32" height="32" viewBox="0 0 32 32" fill="none" xmlns="http://www.w3.org/2000/svg">
    <path d="m27.915 13.234-.026-.014c-.327-.193-.476-.514-.337-.72l2.532-3.307c.138-.198.435-.255.665-.118l.016.01c.23.131.302.404.168.602L28.77 13.21c-.143.208-.522.222-.85.029M27.915 21.109l-.026-.014c-.327-.193-.476-.514-.337-.72l2.532-3.307c.138-.198.435-.255.665-.118l.016.01c.23.131.302.404.168.602l-2.164 3.523c-.143.208-.522.222-.85.029" fill="#000"/>
    <rect x="2.5" y="7" width="1.5" height="18" rx=".75" fill="#000"/>
    <rect x="27" y="7" width="1.5" height="18" rx=".75" fill="#000"/>
    <rect x="1.5" y="13" width="2" height="6" rx=".438" fill="#000"/>
    <rect x="12" y="14.5" width="7" height="3" rx=".656" stroke="#000"/>
    <path stroke="#000" stroke-width="1.5" d="M3.25 8.75h24.5v14.5H3.25z"/>
</svg>
