<svg width="33" height="32" viewBox="0 0 33 32" fill="none" xmlns="http://www.w3.org/2000/svg">
    <rect x="19.938" y="5.75" width="6.625" height="6.648" rx="3.312" stroke="#000" stroke-width="1.5"/>
    <path d="M4.5 25.642a6.04 6.04 0 0 1 6.04-6.04h4.295a6.04 6.04 0 0 1 6.04 6.04.608.608 0 0 1-.608.608H5.108a.608.608 0 0 1-.608-.608z" stroke="#000" stroke-width="1.5"/>
    <path fill-rule="evenodd" clip-rule="evenodd" d="M22.182 16.278h2.136a3.933 3.933 0 0 1 3.91 3.518h-8.065c.548.436 1.038.94 1.458 1.5h7.043c.6 0 1.086-.486 1.086-1.086 0-3-2.432-5.432-5.432-5.432h-2.136a5.434 5.434 0 0 0-5.08 3.503 8.04 8.04 0 0 1 1.416.5 3.934 3.934 0 0 1 3.664-2.503z" fill="#000"/>
    <rect x="8.563" y="7.38" width="8.25" height="9.093" rx="4.125" stroke="#000" stroke-width="1.5"/>
</svg>
