<svg width="24" height="24" viewBox="0 0 24 24" fill="none" xmlns="http://www.w3.org/2000/svg">
    <circle cx="8.25" cy="6.25" r="4.5" stroke="#0F396B" stroke-width="1.5"/>
    <circle cx="20" cy="4.5" r="2.25" stroke="#0F396B" stroke-width="1.5"/>
    <path fill-rule="evenodd" clip-rule="evenodd" d="M19.773 8.29a2.314 2.314 0 0 0-2.975.698l-2.37 3.324.383 2.048 3.208-4.502a.814.814 0 0 1 1.335.932l-4.092 5.98.39 2.087 4.94-7.22a2.314 2.314 0 0 0-.82-3.347zM12.44 18.751l-.34-1.815-2.617-1.224-.509-.238-.371.422-4.71 5.348a.767.767 0 1 1-1.15-1.014l5.478-6.203a.75.75 0 0 1 .86-.192l2.654 1.146-.333-1.778-1.727-.745a2.25 2.25 0 0 0-2.578.576L1.62 19.237a2.267 2.267 0 1 0 3.4 2.998l4.338-4.926 3.083 1.442z" fill="#0F396B"/>
    <rect width="1.541" height="9.543" rx=".77" transform="matrix(.98694 -.1611 .18424 .98288 12.065 12.336)" fill="#0F396B"/>
</svg>
