<svg width="24" height="24" viewBox="0 0 24 24" fill="none" xmlns="http://www.w3.org/2000/svg">
    <circle cx="12" cy="12" r="10.063" stroke="#0F396B" stroke-width="1.875"/>
    <path d="M8.402 12.11c-.696-.994.015-2.36 1.229-2.36h4.738c1.214 0 1.925 1.366 1.229 2.36a1.5 1.5 0 0 1-1.229.64H9.631a1.5 1.5 0 0 1-1.229-.64z" fill="#0F396B"/>
    <path fill="#0F396B" d="M1.5 10.5h20.25v2.25H1.5z"/>
    <path d="M13.5 17.25c0-2.7 1.5-4.125 2.25-4.5l.75-.75-.75-.75H12v10.5h1.5v-4.5zM10.5 17.25c0-2.7-1.5-4.125-2.25-4.5L7.5 12l.75-.75H12v10.5h-1.5v-4.5z" fill="#0F396B"/>
</svg>
