<svg width="24" height="24" viewBox="0 0 24 24" fill="none" xmlns="http://www.w3.org/2000/svg">
    <circle cx="16.5" cy="7.5" r="1.688" stroke="#0F396B" stroke-width="1.125"/>
    <path d="M15.5 15a6.5 6.5 0 1 0-5.746-3.46.204.204 0 0 1-.035.24l-7.66 7.661a.2.2 0 0 0-.059.142V21.8c0 .11.09.2.2.2h3.1a.2.2 0 0 0 .2-.2v-2.1c0-.11.09-.2.2-.2h2.217a.2.2 0 0 0 .142-.059l.882-.882A.2.2 0 0 0 9 18.417V16.7c0-.11.09-.2.2-.2h1.717a.2.2 0 0 0 .142-.059l1.845-1.845a.204.204 0 0 1 .219-.044c.736.289 1.538.448 2.377.448z" stroke="#0F396B" stroke-width="1.5"/>
</svg>
