<svg width="24" height="24" viewBox="0 0 24 24" fill="none" xmlns="http://www.w3.org/2000/svg">
    <mask id="is9bp4veva" fill="#fff">
        <path fill-rule="evenodd" clip-rule="evenodd" d="M3.25 2A2.25 2.25 0 0 0 1 4.25v11.5A2.25 2.25 0 0 0 3.25 18H7v3.19a.75.75 0 0 0 1.28.53L12 18h8.75A2.25 2.25 0 0 0 23 15.75V4.25A2.25 2.25 0 0 0 20.75 2H3.25z"/>
    </mask>
    <path d="M7 18h1.5v-1.5H7V18zm0 3.19h1.5H7zm1.28.53 1.061 1.06-1.06-1.06zM12 18v-1.5h-.621l-.44.44L12 18zM2.5 4.25a.75.75 0 0 1 .75-.75v-3A3.75 3.75 0 0 0-.5 4.25h3zm0 11.5V4.25h-3v11.5h3zm.75.75a.75.75 0 0 1-.75-.75h-3a3.75 3.75 0 0 0 3.75 3.75v-3zm3.75 0H3.25v3H7v-3zM5.5 18v3.19h3V18h-3zm0 3.19c0 2.004 2.424 3.008 3.841 1.59L7.22 20.66a.75.75 0 0 1 1.28.53h-3zm3.841 1.59 3.72-3.72-2.122-2.12-3.72 3.719 2.122 2.121zM20.75 16.5H12v3h8.75v-3zm.75-.75a.75.75 0 0 1-.75.75v3a3.75 3.75 0 0 0 3.75-3.75h-3zm0-11.5v11.5h3V4.25h-3zm-.75-.75a.75.75 0 0 1 .75.75h3A3.75 3.75 0 0 0 20.75.5v3zm-17.5 0h17.5v-3H3.25v3z" fill="#0F396B" mask="url(#is9bp4veva)"/>
    <rect x="4.5" y="7" width="15" height="1.5" rx=".75" fill="#0F396B"/>
    <rect x="4.5" y="11.5" width="9" height="1.5" rx=".75" fill="#0F396B"/>
</svg>
