<svg width="24" height="24" viewBox="0 0 24 24" fill="none" xmlns="http://www.w3.org/2000/svg">
    <path d="M10.698 4.29a1.5 1.5 0 0 1 2.604 0l8.123 14.216a1.5 1.5 0 0 1-1.302 2.244H3.877a1.5 1.5 0 0 1-1.302-2.244L10.698 4.29z" stroke="#0F396B" stroke-width="1.5"/>
    <path d="m12.885 8.75-.19 6.697h-1.39L11.11 8.75h1.776zm-1.822 8.77a1 1 0 0 1 .254-.702.882.882 0 0 1 .683-.285c.286 0 .513.095.683.285a1 1 0 0 1 .255.702c0 .274-.085.505-.255.695-.17.19-.397.285-.683.285a.882.882 0 0 1-.683-.285 1.006 1.006 0 0 1-.255-.695z" fill="#0F396B"/>
</svg>
